<?xml version="1.0" encoding="UTF-8" standalone="no"?>
<!DOCTYPE svg PUBLIC "-//W3C//DTD SVG 1.1//EN"
 "http://www.w3.org/Graphics/SVG/1.1/DTD/svg11.dtd">
<!-- Generated by graphviz version 12.1.2 (20240928.0832)
 -->
<!-- Title: DBドキュメント Pages: 1 -->
<svg width="3552pt" height="1599pt"
 viewBox="0.00 0.00 3551.79 1599.00" xmlns="http://www.w3.org/2000/svg" xmlns:xlink="http://www.w3.org/1999/xlink">
<g id="graph0" class="graph" transform="scale(1 1) rotate(0) translate(4 1595)">
<title>DBドキュメント</title>
<polygon fill="white" stroke="none" points="-4,4 -4,-1595 3547.79,-1595 3547.79,4 -4,4"/>
<!-- uasl_reservation.migrations -->
<g id="node1" class="node">
<title>uasl_reservation.migrations</title>
<polygon fill="#efefef" stroke="none" points="43.2,-848 43.2,-883.6 381.14,-883.6 381.14,-848 43.2,-848"/>
<polygon fill="none" stroke="black" points="43.2,-848 43.2,-883.6 381.14,-883.6 381.14,-848 43.2,-848"/>
<text text-anchor="start" x="50.2" y="-861.4" font-family="Arial Bold" font-size="18.00">uasl_reservation.migrations</text>
<text text-anchor="start" x="249.65" y="-861.4" font-family="Arial" font-size="14.00">    </text>
<text text-anchor="start" x="280.77" y="-861.4" font-family="Arial" font-size="14.00" fill="#666666">[BASE TABLE]</text>
<polygon fill="none" stroke="black" points="43.2,-817.2 43.2,-848 381.14,-848 381.14,-817.2 43.2,-817.2"/>
<text text-anchor="start" x="50.2" y="-829.4" font-family="Arial" font-size="14.00">id </text>
<text text-anchor="start" x="64.99" y="-829.4" font-family="Arial" font-size="14.00" fill="#666666">[text]</text>
<polygon fill="none" stroke="black" points="43.2,-786.4 43.2,-817.2 381.14,-817.2 381.14,-786.4 43.2,-786.4"/>
<text text-anchor="start" x="50.2" y="-798.6" font-family="Arial" font-size="14.00">applied_at </text>
<text text-anchor="start" x="118.7" y="-798.6" font-family="Arial" font-size="14.00" fill="#666666">[timestamp with time zone]</text>
</g>
<!-- uasl_reservation.operations -->
<g id="node2" class="node">
<title>uasl_reservation.operations</title>
<polygon fill="#efefef" stroke="none" points="510.21,-181.8 510.21,-217.4 846.13,-217.4 846.13,-181.8 510.21,-181.8"/>
<polygon fill="none" stroke="black" points="510.21,-181.8 510.21,-217.4 846.13,-217.4 846.13,-181.8 510.21,-181.8"/>
<text text-anchor="start" x="517.21" y="-195.2" font-family="Arial Bold" font-size="18.00">uasl_reservation.operations</text>
<text text-anchor="start" x="714.64" y="-195.2" font-family="Arial" font-size="14.00">    </text>
<text text-anchor="start" x="745.76" y="-195.2" font-family="Arial" font-size="14.00" fill="#666666">[BASE TABLE]</text>
<polygon fill="none" stroke="black" points="510.21,-151 510.21,-181.8 846.13,-181.8 846.13,-151 510.21,-151"/>
<text text-anchor="start" x="517.21" y="-163.2" font-family="Arial" font-size="14.00">id </text>
<text text-anchor="start" x="531.99" y="-163.2" font-family="Arial" font-size="14.00" fill="#666666">[uuid]</text>
</g>
<!-- uasl_reservation.uasl_operators -->
<g id="node3" class="node">
<title>uasl_reservation.uasl_operators</title>
<polygon fill="#efefef" stroke="none" points="975.21,-878.8 975.21,-914.4 1341.13,-914.4 1341.13,-878.8 975.21,-878.8"/>
<polygon fill="none" stroke="black" points="975.21,-878.8 975.21,-914.4 1341.13,-914.4 1341.13,-878.8 975.21,-878.8"/>
<text text-anchor="start" x="982.21" y="-892.2" font-family="Arial Bold" font-size="18.00">uasl_reservation.uasl_operators</text>
<text text-anchor="start" x="1209.64" y="-892.2" font-family="Arial" font-size="14.00">    </text>
<text text-anchor="start" x="1240.76" y="-892.2" font-family="Arial" font-size="14.00" fill="#666666">[BASE TABLE]</text>
<polygon fill="none" stroke="black" points="975.21,-848 975.21,-878.8 1341.13,-878.8 1341.13,-848 975.21,-848"/>
<text text-anchor="start" x="982.21" y="-860.2" font-family="Arial" font-size="14.00">id </text>
<text text-anchor="start" x="997" y="-860.2" font-family="Arial" font-size="14.00" fill="#666666">[uuid]</text>
<polygon fill="none" stroke="black" points="975.21,-817.2 975.21,-848 1341.13,-848 1341.13,-817.2 975.21,-817.2"/>
<text text-anchor="start" x="982.21" y="-829.4" font-family="Arial" font-size="14.00">name </text>
<text text-anchor="start" x="1021.12" y="-829.4" font-family="Arial" font-size="14.00" fill="#666666">[varchar(255)]</text>
<polygon fill="none" stroke="black" points="975.21,-786.4 975.21,-817.2 1341.13,-817.2 1341.13,-786.4 975.21,-786.4"/>
<text text-anchor="start" x="982.21" y="-798.6" font-family="Arial" font-size="14.00">created_at </text>
<text text-anchor="start" x="1052.26" y="-798.6" font-family="Arial" font-size="14.00" fill="#666666">[timestamp(0) with time zone]</text>
<polygon fill="none" stroke="black" points="975.21,-755.6 975.21,-786.4 1341.13,-786.4 1341.13,-755.6 975.21,-755.6"/>
<text text-anchor="start" x="982.21" y="-767.8" font-family="Arial" font-size="14.00">updated_at </text>
<text text-anchor="start" x="1056.17" y="-767.8" font-family="Arial" font-size="14.00" fill="#666666">[timestamp(0) with time zone]</text>
</g>
<!-- uasl_reservation.uasl_administrators -->
<g id="node4" class="node">
<title>uasl_reservation.uasl_administrators</title>
<polygon fill="#efefef" stroke="none" points="1724.21,-289.6 1724.21,-325.2 2126.13,-325.2 2126.13,-289.6 1724.21,-289.6"/>
<polygon fill="none" stroke="black" points="1724.21,-289.6 1724.21,-325.2 2126.13,-325.2 2126.13,-289.6 1724.21,-289.6"/>
<text text-anchor="start" x="1731.21" y="-303" font-family="Arial Bold" font-size="18.00">uasl_reservation.uasl_administrators</text>
<text text-anchor="start" x="1994.64" y="-303" font-family="Arial" font-size="14.00">    </text>
<text text-anchor="start" x="2025.76" y="-303" font-family="Arial" font-size="14.00" fill="#666666">[BASE TABLE]</text>
<polygon fill="none" stroke="black" points="1724.21,-258.8 1724.21,-289.6 2126.13,-289.6 2126.13,-258.8 1724.21,-258.8"/>
<text text-anchor="start" x="1731.21" y="-271" font-family="Arial" font-size="14.00">id </text>
<text text-anchor="start" x="1745.99" y="-271" font-family="Arial" font-size="14.00" fill="#666666">[uuid]</text>
<polygon fill="none" stroke="black" points="1724.21,-228 1724.21,-258.8 2126.13,-258.8 2126.13,-228 1724.21,-228"/>
<text text-anchor="start" x="1731.21" y="-240.2" font-family="Arial" font-size="14.00">ex_administrator_id </text>
<text text-anchor="start" x="1857.27" y="-240.2" font-family="Arial" font-size="14.00" fill="#666666">[varchar(255)]</text>
<polygon fill="none" stroke="black" points="1724.21,-197.2 1724.21,-228 2126.13,-228 2126.13,-197.2 1724.21,-197.2"/>
<text text-anchor="start" x="1731.21" y="-209.4" font-family="Arial" font-size="14.00">business_number </text>
<text text-anchor="start" x="1845.61" y="-209.4" font-family="Arial" font-size="14.00" fill="#666666">[varchar(255)]</text>
<polygon fill="none" stroke="black" points="1724.21,-166.4 1724.21,-197.2 2126.13,-197.2 2126.13,-166.4 1724.21,-166.4"/>
<text text-anchor="start" x="1731.21" y="-178.6" font-family="Arial" font-size="14.00">name </text>
<text text-anchor="start" x="1770.12" y="-178.6" font-family="Arial" font-size="14.00" fill="#666666">[varchar(255)]</text>
<polygon fill="none" stroke="black" points="1724.21,-135.6 1724.21,-166.4 2126.13,-166.4 2126.13,-135.6 1724.21,-135.6"/>
<text text-anchor="start" x="1731.21" y="-147.8" font-family="Arial" font-size="14.00">is_internal </text>
<text text-anchor="start" x="1798.91" y="-147.8" font-family="Arial" font-size="14.00" fill="#666666">[boolean]</text>
<polygon fill="none" stroke="black" points="1724.21,-104.8 1724.21,-135.6 2126.13,-135.6 2126.13,-104.8 1724.21,-104.8"/>
<text text-anchor="start" x="1731.21" y="-117" font-family="Arial" font-size="14.00">external_services </text>
<text text-anchor="start" x="1844.03" y="-117" font-family="Arial" font-size="14.00" fill="#666666">[jsonb]</text>
<polygon fill="none" stroke="black" points="1724.21,-74 1724.21,-104.8 2126.13,-104.8 2126.13,-74 1724.21,-74"/>
<text text-anchor="start" x="1731.21" y="-86.2" font-family="Arial" font-size="14.00">created_at </text>
<text text-anchor="start" x="1801.26" y="-86.2" font-family="Arial" font-size="14.00" fill="#666666">[timestamp(0) with time zone]</text>
<polygon fill="none" stroke="black" points="1724.21,-43.2 1724.21,-74 2126.13,-74 2126.13,-43.2 1724.21,-43.2"/>
<text text-anchor="start" x="1731.21" y="-55.4" font-family="Arial" font-size="14.00">updated_at </text>
<text text-anchor="start" x="1805.17" y="-55.4" font-family="Arial" font-size="14.00" fill="#666666">[timestamp(0) with time zone]</text>
</g>
<!-- uasl_reservation.external_uasl_definitions -->
<g id="node5" class="node">
<title>uasl_reservation.external_uasl_definitions</title>
<polygon fill="#efefef" stroke="none" points="1445.72,-1017.4 1445.72,-1053 1888.62,-1053 1888.62,-1017.4 1445.72,-1017.4"/>
<polygon fill="none" stroke="black" points="1445.72,-1017.4 1445.72,-1053 1888.62,-1053 1888.62,-1017.4 1445.72,-1017.4"/>
<text text-anchor="start" x="1452.72" y="-1030.8" font-family="Arial Bold" font-size="18.00">uasl_reservation.external_uasl_definitions</text>
<text text-anchor="start" x="1757.13" y="-1030.8" font-family="Arial" font-size="14.00">    </text>
<text text-anchor="start" x="1788.25" y="-1030.8" font-family="Arial" font-size="14.00" fill="#666666">[BASE TABLE]</text>
<polygon fill="none" stroke="black" points="1445.72,-986.6 1445.72,-1017.4 1888.62,-1017.4 1888.62,-986.6 1445.72,-986.6"/>
<text text-anchor="start" x="1452.72" y="-998.8" font-family="Arial" font-size="14.00">id </text>
<text text-anchor="start" x="1467.51" y="-998.8" font-family="Arial" font-size="14.00" fill="#666666">[uuid]</text>
<polygon fill="none" stroke="black" points="1445.72,-955.8 1445.72,-986.6 1888.62,-986.6 1888.62,-955.8 1445.72,-955.8"/>
<text text-anchor="start" x="1452.72" y="-968" font-family="Arial" font-size="14.00">ex_uasl_section_id </text>
<text text-anchor="start" x="1575.69" y="-968" font-family="Arial" font-size="14.00" fill="#666666">[varchar(255)]</text>
<polygon fill="none" stroke="black" points="1445.72,-925 1445.72,-955.8 1888.62,-955.8 1888.62,-925 1445.72,-925"/>
<text text-anchor="start" x="1452.72" y="-937.2" font-family="Arial" font-size="14.00">ex_uasl_id </text>
<text text-anchor="start" x="1523.55" y="-937.2" font-family="Arial" font-size="14.00" fill="#666666">[varchar(255)]</text>
<polygon fill="none" stroke="black" points="1445.72,-894.2 1445.72,-925 1888.62,-925 1888.62,-894.2 1445.72,-894.2"/>
<text text-anchor="start" x="1452.72" y="-906.4" font-family="Arial" font-size="14.00">ex_administrator_id </text>
<text text-anchor="start" x="1578.78" y="-906.4" font-family="Arial" font-size="14.00" fill="#666666">[varchar(255)]</text>
<polygon fill="none" stroke="black" points="1445.72,-863.4 1445.72,-894.2 1888.62,-894.2 1888.62,-863.4 1445.72,-863.4"/>
<text text-anchor="start" x="1452.72" y="-875.6" font-family="Arial" font-size="14.00">geometry </text>
<text text-anchor="start" x="1514.97" y="-875.6" font-family="Arial" font-size="14.00" fill="#666666">[geometry]</text>
<polygon fill="none" stroke="black" points="1445.72,-832.6 1445.72,-863.4 1888.62,-863.4 1888.62,-832.6 1445.72,-832.6"/>
<text text-anchor="start" x="1452.72" y="-844.8" font-family="Arial" font-size="14.00">point_ids </text>
<text text-anchor="start" x="1512.65" y="-844.8" font-family="Arial" font-size="14.00" fill="#666666">[text[]]</text>
<polygon fill="none" stroke="black" points="1445.72,-801.8 1445.72,-832.6 1888.62,-832.6 1888.62,-801.8 1445.72,-801.8"/>
<text text-anchor="start" x="1452.72" y="-814" font-family="Arial" font-size="14.00">flight_purpose </text>
<text text-anchor="start" x="1544.56" y="-814" font-family="Arial" font-size="14.00" fill="#666666">[varchar(255)]</text>
<polygon fill="none" stroke="black" points="1445.72,-771 1445.72,-801.8 1888.62,-801.8 1888.62,-771 1445.72,-771"/>
<text text-anchor="start" x="1452.72" y="-783.2" font-family="Arial" font-size="14.00">price_info </text>
<text text-anchor="start" x="1517.31" y="-783.2" font-family="Arial" font-size="14.00" fill="#666666">[jsonb]</text>
<polygon fill="none" stroke="black" points="1445.72,-740.2 1445.72,-771 1888.62,-771 1888.62,-740.2 1445.72,-740.2"/>
<text text-anchor="start" x="1452.72" y="-752.4" font-family="Arial" font-size="14.00">price_timezone </text>
<text text-anchor="start" x="1551.55" y="-752.4" font-family="Arial" font-size="14.00" fill="#666666">[varchar(50)]</text>
<polygon fill="none" stroke="black" points="1445.72,-709.4 1445.72,-740.2 1888.62,-740.2 1888.62,-709.4 1445.72,-709.4"/>
<text text-anchor="start" x="1452.72" y="-721.6" font-family="Arial" font-size="14.00">price_version </text>
<text text-anchor="start" x="1539.87" y="-721.6" font-family="Arial" font-size="14.00" fill="#666666">[integer]</text>
<polygon fill="none" stroke="black" points="1445.72,-678.6 1445.72,-709.4 1888.62,-709.4 1888.62,-678.6 1445.72,-678.6"/>
<text text-anchor="start" x="1452.72" y="-690.8" font-family="Arial" font-size="14.00">status </text>
<text text-anchor="start" x="1493.96" y="-690.8" font-family="Arial" font-size="14.00" fill="#666666">[uasl_reservation.uasl_section_status]</text>
<polygon fill="none" stroke="black" points="1445.72,-647.8 1445.72,-678.6 1888.62,-678.6 1888.62,-647.8 1445.72,-647.8"/>
<text text-anchor="start" x="1452.72" y="-660" font-family="Arial" font-size="14.00">created_at </text>
<text text-anchor="start" x="1522.77" y="-660" font-family="Arial" font-size="14.00" fill="#666666">[timestamp(0) with time zone]</text>
<polygon fill="none" stroke="black" points="1445.72,-617 1445.72,-647.8 1888.62,-647.8 1888.62,-617 1445.72,-617"/>
<text text-anchor="start" x="1452.72" y="-629.2" font-family="Arial" font-size="14.00">updated_at </text>
<text text-anchor="start" x="1526.68" y="-629.2" font-family="Arial" font-size="14.00" fill="#666666">[timestamp(0) with time zone]</text>
</g>
<!-- uasl_reservation.external_uasl_definitions&#45;&gt;uasl_reservation.uasl_administrators -->
<g id="edge1" class="edge">
<title>uasl_reservation.external_uasl_definitions:ex_administrator_id&#45;&gt;uasl_reservation.uasl_administrators:ex_administrator_id</title>
<path fill="none" stroke="black" d="M1899.67,-907.76C1959.34,-884.14 1912.22,-640.74 1888.62,-573.8 1849.73,-463.52 1763.37,-478.58 1724.21,-368.4 1705.6,-316.05 1667.65,-243.4 1723.21,-243.4"/>
<polygon fill="black" stroke="black" points="1899.78,-907.73 1889.14,-905.11 1894.54,-908.7 1890.28,-909.48 1890.28,-909.48 1890.28,-909.48 1894.54,-908.7 1890.76,-913.97 1899.78,-907.73"/>
<text text-anchor="start" x="1641.75" y="-893.6" font-family="Arial" font-size="10.00">FOREIGN KEY (ex_administrator_id) REFERENCES uasl_reservation.uasl_administrators(ex_administrator_id)</text>
</g>
<!-- uasl_reservation.external_uasl_resources -->
<g id="node6" class="node">
<title>uasl_reservation.external_uasl_resources</title>
<polygon fill="#efefef" stroke="none" points="2477.23,-986.6 2477.23,-1022.2 2911.11,-1022.2 2911.11,-986.6 2477.23,-986.6"/>
<polygon fill="none" stroke="black" points="2477.23,-986.6 2477.23,-1022.2 2911.11,-1022.2 2911.11,-986.6 2477.23,-986.6"/>
<text text-anchor="start" x="2484.23" y="-1000" font-family="Arial Bold" font-size="18.00">uasl_reservation.external_uasl_resources</text>
<text text-anchor="start" x="2779.62" y="-1000" font-family="Arial" font-size="14.00">    </text>
<text text-anchor="start" x="2810.73" y="-1000" font-family="Arial" font-size="14.00" fill="#666666">[BASE TABLE]</text>
<polygon fill="none" stroke="black" points="2477.23,-955.8 2477.23,-986.6 2911.11,-986.6 2911.11,-955.8 2477.23,-955.8"/>
<text text-anchor="start" x="2484.23" y="-968" font-family="Arial" font-size="14.00">id </text>
<text text-anchor="start" x="2499.02" y="-968" font-family="Arial" font-size="14.00" fill="#666666">[uuid]</text>
<polygon fill="none" stroke="black" points="2477.23,-925 2477.23,-955.8 2911.11,-955.8 2911.11,-925 2477.23,-925"/>
<text text-anchor="start" x="2484.23" y="-937.2" font-family="Arial" font-size="14.00">name </text>
<text text-anchor="start" x="2523.14" y="-937.2" font-family="Arial" font-size="14.00" fill="#666666">[varchar(255)]</text>
<polygon fill="none" stroke="black" points="2477.23,-894.2 2477.23,-925 2911.11,-925 2911.11,-894.2 2477.23,-894.2"/>
<text text-anchor="start" x="2484.23" y="-906.4" font-family="Arial" font-size="14.00">resource_id </text>
<text text-anchor="start" x="2561.27" y="-906.4" font-family="Arial" font-size="14.00" fill="#666666">[uuid]</text>
<polygon fill="none" stroke="black" points="2477.23,-863.4 2477.23,-894.2 2911.11,-894.2 2911.11,-863.4 2477.23,-863.4"/>
<text text-anchor="start" x="2484.23" y="-875.6" font-family="Arial" font-size="14.00">ex_uasl_section_id </text>
<text text-anchor="start" x="2607.21" y="-875.6" font-family="Arial" font-size="14.00" fill="#666666">[varchar(255)]</text>
<polygon fill="none" stroke="black" points="2477.23,-832.6 2477.23,-863.4 2911.11,-863.4 2911.11,-832.6 2477.23,-832.6"/>
<text text-anchor="start" x="2484.23" y="-844.8" font-family="Arial" font-size="14.00">resource_type </text>
<text text-anchor="start" x="2576.84" y="-844.8" font-family="Arial" font-size="14.00" fill="#666666">[uasl_reservation.uasl_resource_type]</text>
<polygon fill="none" stroke="black" points="2477.23,-801.8 2477.23,-832.6 2911.11,-832.6 2911.11,-801.8 2477.23,-801.8"/>
<text text-anchor="start" x="2484.23" y="-814" font-family="Arial" font-size="14.00">ex_resource_id </text>
<text text-anchor="start" x="2583.85" y="-814" font-family="Arial" font-size="14.00" fill="#666666">[varchar(255)]</text>
<polygon fill="none" stroke="black" points="2477.23,-771 2477.23,-801.8 2911.11,-801.8 2911.11,-771 2477.23,-771"/>
<text text-anchor="start" x="2484.23" y="-783.2" font-family="Arial" font-size="14.00">organization_id </text>
<text text-anchor="start" x="2583.08" y="-783.2" font-family="Arial" font-size="14.00" fill="#666666">[uuid]</text>
<polygon fill="none" stroke="black" points="2477.23,-740.2 2477.23,-771 2911.11,-771 2911.11,-740.2 2477.23,-740.2"/>
<text text-anchor="start" x="2484.23" y="-752.4" font-family="Arial" font-size="14.00">estimated_price_per_minute </text>
<text text-anchor="start" x="2664.78" y="-752.4" font-family="Arial" font-size="14.00" fill="#666666">[jsonb]</text>
<polygon fill="none" stroke="black" points="2477.23,-709.4 2477.23,-740.2 2911.11,-740.2 2911.11,-709.4 2477.23,-709.4"/>
<text text-anchor="start" x="2484.23" y="-721.6" font-family="Arial" font-size="14.00">aircraft_info </text>
<text text-anchor="start" x="2561.27" y="-721.6" font-family="Arial" font-size="14.00" fill="#666666">[jsonb]</text>
<polygon fill="none" stroke="black" points="2477.23,-678.6 2477.23,-709.4 2911.11,-709.4 2911.11,-678.6 2477.23,-678.6"/>
<text text-anchor="start" x="2484.23" y="-690.8" font-family="Arial" font-size="14.00">created_at </text>
<text text-anchor="start" x="2554.28" y="-690.8" font-family="Arial" font-size="14.00" fill="#666666">[timestamp(0) with time zone]</text>
<polygon fill="none" stroke="black" points="2477.23,-647.8 2477.23,-678.6 2911.11,-678.6 2911.11,-647.8 2477.23,-647.8"/>
<text text-anchor="start" x="2484.23" y="-660" font-family="Arial" font-size="14.00">updated_at </text>
<text text-anchor="start" x="2558.19" y="-660" font-family="Arial" font-size="14.00" fill="#666666">[timestamp(0) with time zone]</text>
</g>
<!-- uasl_reservation.uasl_reservations -->
<g id="node7" class="node">
<title>uasl_reservation.uasl_reservations</title>
<polygon fill="#efefef" stroke="none" points="485.21,-1186.8 485.21,-1222.4 871.12,-1222.4 871.12,-1186.8 485.21,-1186.8"/>
<polygon fill="none" stroke="black" points="485.21,-1186.8 485.21,-1222.4 871.12,-1222.4 871.12,-1186.8 485.21,-1186.8"/>
<text text-anchor="start" x="492.21" y="-1200.2" font-family="Arial Bold" font-size="18.00">uasl_reservation.uasl_reservations</text>
<text text-anchor="start" x="739.64" y="-1200.2" font-family="Arial" font-size="14.00">    </text>
<text text-anchor="start" x="770.75" y="-1200.2" font-family="Arial" font-size="14.00" fill="#666666">[BASE TABLE]</text>
<polygon fill="none" stroke="black" points="485.21,-1156 485.21,-1186.8 871.12,-1186.8 871.12,-1156 485.21,-1156"/>
<text text-anchor="start" x="492.21" y="-1168.2" font-family="Arial" font-size="14.00">id </text>
<text text-anchor="start" x="507" y="-1168.2" font-family="Arial" font-size="14.00" fill="#666666">[uuid]</text>
<polygon fill="none" stroke="black" points="485.21,-1125.2 485.21,-1156 871.12,-1156 871.12,-1125.2 485.21,-1125.2"/>
<text text-anchor="start" x="492.21" y="-1137.4" font-family="Arial" font-size="14.00">parent_uasl_reservation_id </text>
<text text-anchor="start" x="664.99" y="-1137.4" font-family="Arial" font-size="14.00" fill="#666666">[uuid]</text>
<polygon fill="none" stroke="black" points="485.21,-1094.4 485.21,-1125.2 871.12,-1125.2 871.12,-1094.4 485.21,-1094.4"/>
<text text-anchor="start" x="492.21" y="-1106.6" font-family="Arial" font-size="14.00">request_id </text>
<text text-anchor="start" x="561.48" y="-1106.6" font-family="Arial" font-size="14.00" fill="#666666">[uuid]</text>
<polygon fill="none" stroke="black" points="485.21,-1063.6 485.21,-1094.4 871.12,-1094.4 871.12,-1063.6 485.21,-1063.6"/>
<text text-anchor="start" x="492.21" y="-1075.8" font-family="Arial" font-size="14.00">ex_uasl_section_id </text>
<text text-anchor="start" x="615.19" y="-1075.8" font-family="Arial" font-size="14.00" fill="#666666">[varchar(255)]</text>
<polygon fill="none" stroke="black" points="485.21,-1032.8 485.21,-1063.6 871.12,-1063.6 871.12,-1032.8 485.21,-1032.8"/>
<text text-anchor="start" x="492.21" y="-1045" font-family="Arial" font-size="14.00">ex_uasl_id </text>
<text text-anchor="start" x="563.04" y="-1045" font-family="Arial" font-size="14.00" fill="#666666">[varchar(255)]</text>
<polygon fill="none" stroke="black" points="485.21,-1002 485.21,-1032.8 871.12,-1032.8 871.12,-1002 485.21,-1002"/>
<text text-anchor="start" x="492.21" y="-1014.2" font-family="Arial" font-size="14.00">ex_administrator_id </text>
<text text-anchor="start" x="618.28" y="-1014.2" font-family="Arial" font-size="14.00" fill="#666666">[varchar(255)]</text>
<polygon fill="none" stroke="black" points="485.21,-971.2 485.21,-1002 871.12,-1002 871.12,-971.2 485.21,-971.2"/>
<text text-anchor="start" x="492.21" y="-983.4" font-family="Arial" font-size="14.00">start_at </text>
<text text-anchor="start" x="542.79" y="-983.4" font-family="Arial" font-size="14.00" fill="#666666">[timestamp(0) with time zone]</text>
<polygon fill="none" stroke="black" points="485.21,-940.4 485.21,-971.2 871.12,-971.2 871.12,-940.4 485.21,-940.4"/>
<text text-anchor="start" x="492.21" y="-952.6" font-family="Arial" font-size="14.00">end_at </text>
<text text-anchor="start" x="538.92" y="-952.6" font-family="Arial" font-size="14.00" fill="#666666">[timestamp(0) with time zone]</text>
<polygon fill="none" stroke="black" points="485.21,-909.6 485.21,-940.4 871.12,-940.4 871.12,-909.6 485.21,-909.6"/>
<text text-anchor="start" x="492.21" y="-921.8" font-family="Arial" font-size="14.00">accepted_at </text>
<text text-anchor="start" x="572.39" y="-921.8" font-family="Arial" font-size="14.00" fill="#666666">[timestamp(0) with time zone]</text>
<polygon fill="none" stroke="black" points="485.21,-878.8 485.21,-909.6 871.12,-909.6 871.12,-878.8 485.21,-878.8"/>
<text text-anchor="start" x="492.21" y="-891" font-family="Arial" font-size="14.00">airspace_id </text>
<text text-anchor="start" x="567.7" y="-891" font-family="Arial" font-size="14.00" fill="#666666">[uuid]</text>
<polygon fill="none" stroke="black" points="485.21,-848 485.21,-878.8 871.12,-878.8 871.12,-848 485.21,-848"/>
<text text-anchor="start" x="492.21" y="-860.2" font-family="Arial" font-size="14.00">ex_reserved_by </text>
<text text-anchor="start" x="595.72" y="-860.2" font-family="Arial" font-size="14.00" fill="#666666">[uuid]</text>
<polygon fill="none" stroke="black" points="485.21,-817.2 485.21,-848 871.12,-848 871.12,-817.2 485.21,-817.2"/>
<text text-anchor="start" x="492.21" y="-829.4" font-family="Arial" font-size="14.00">organization_id </text>
<text text-anchor="start" x="591.06" y="-829.4" font-family="Arial" font-size="14.00" fill="#666666">[uuid]</text>
<polygon fill="none" stroke="black" points="485.21,-786.4 485.21,-817.2 871.12,-817.2 871.12,-786.4 485.21,-786.4"/>
<text text-anchor="start" x="492.21" y="-798.6" font-family="Arial" font-size="14.00">project_id </text>
<text text-anchor="start" x="556.81" y="-798.6" font-family="Arial" font-size="14.00" fill="#666666">[uuid]</text>
<polygon fill="none" stroke="black" points="485.21,-755.6 485.21,-786.4 871.12,-786.4 871.12,-755.6 485.21,-755.6"/>
<text text-anchor="start" x="492.21" y="-767.8" font-family="Arial" font-size="14.00">operation_id </text>
<text text-anchor="start" x="573.17" y="-767.8" font-family="Arial" font-size="14.00" fill="#666666">[uuid]</text>
<polygon fill="none" stroke="black" points="485.21,-724.8 485.21,-755.6 871.12,-755.6 871.12,-724.8 485.21,-724.8"/>
<text text-anchor="start" x="492.21" y="-737" font-family="Arial" font-size="14.00">status </text>
<text text-anchor="start" x="533.46" y="-737" font-family="Arial" font-size="14.00" fill="#666666">[uasl_reservation.reservation_status]</text>
<polygon fill="none" stroke="black" points="485.21,-694 485.21,-724.8 871.12,-724.8 871.12,-694 485.21,-694"/>
<text text-anchor="start" x="492.21" y="-706.2" font-family="Arial" font-size="14.00">pricing_rule_version </text>
<text text-anchor="start" x="621.39" y="-706.2" font-family="Arial" font-size="14.00" fill="#666666">[integer]</text>
<polygon fill="none" stroke="black" points="485.21,-663.2 485.21,-694 871.12,-694 871.12,-663.2 485.21,-663.2"/>
<text text-anchor="start" x="492.21" y="-675.4" font-family="Arial" font-size="14.00">amount </text>
<text text-anchor="start" x="542.8" y="-675.4" font-family="Arial" font-size="14.00" fill="#666666">[integer]</text>
<polygon fill="none" stroke="black" points="485.21,-632.4 485.21,-663.2 871.12,-663.2 871.12,-632.4 485.21,-632.4"/>
<text text-anchor="start" x="492.21" y="-644.6" font-family="Arial" font-size="14.00">estimated_at </text>
<text text-anchor="start" x="576.26" y="-644.6" font-family="Arial" font-size="14.00" fill="#666666">[timestamp(0) with time zone]</text>
<polygon fill="none" stroke="black" points="485.21,-601.6 485.21,-632.4 871.12,-632.4 871.12,-601.6 485.21,-601.6"/>
<text text-anchor="start" x="492.21" y="-613.8" font-family="Arial" font-size="14.00">fixed_at </text>
<text text-anchor="start" x="545.14" y="-613.8" font-family="Arial" font-size="14.00" fill="#666666">[timestamp(0) with time zone]</text>
<polygon fill="none" stroke="black" points="485.21,-570.8 485.21,-601.6 871.12,-601.6 871.12,-570.8 485.21,-570.8"/>
<text text-anchor="start" x="492.21" y="-583" font-family="Arial" font-size="14.00">sequence </text>
<text text-anchor="start" x="556.82" y="-583" font-family="Arial" font-size="14.00" fill="#666666">[integer]</text>
<polygon fill="none" stroke="black" points="485.21,-540 485.21,-570.8 871.12,-570.8 871.12,-540 485.21,-540"/>
<text text-anchor="start" x="492.21" y="-552.2" font-family="Arial" font-size="14.00">conformity_assessment </text>
<text text-anchor="start" x="643.16" y="-552.2" font-family="Arial" font-size="14.00" fill="#666666">[jsonb]</text>
<polygon fill="none" stroke="black" points="485.21,-509.2 485.21,-540 871.12,-540 871.12,-509.2 485.21,-509.2"/>
<text text-anchor="start" x="492.21" y="-521.4" font-family="Arial" font-size="14.00">destination_reservations </text>
<text text-anchor="start" x="647.86" y="-521.4" font-family="Arial" font-size="14.00" fill="#666666">[jsonb]</text>
<polygon fill="none" stroke="black" points="485.21,-478.4 485.21,-509.2 871.12,-509.2 871.12,-478.4 485.21,-478.4"/>
<text text-anchor="start" x="492.21" y="-490.6" font-family="Arial" font-size="14.00">created_at </text>
<text text-anchor="start" x="562.26" y="-490.6" font-family="Arial" font-size="14.00" fill="#666666">[timestamp(0) with time zone]</text>
<polygon fill="none" stroke="black" points="485.21,-447.6 485.21,-478.4 871.12,-478.4 871.12,-447.6 485.21,-447.6"/>
<text text-anchor="start" x="492.21" y="-459.8" font-family="Arial" font-size="14.00">updated_at </text>
<text text-anchor="start" x="566.17" y="-459.8" font-family="Arial" font-size="14.00" fill="#666666">[timestamp(0) with time zone]</text>
</g>
<!-- uasl_reservation.uasl_reservations&#45;&gt;uasl_reservation.operations -->
<g id="edge2" class="edge">
<title>uasl_reservation.uasl_reservations:operation_id&#45;&gt;uasl_reservation.operations:id</title>
<path fill="none" stroke="black" d="M878.81,-763.02C907.4,-692.24 911.98,-173.75 889.33,-151 823.13,-84.48 678.17,-56.15 678.17,-150"/>
<polygon fill="black" stroke="black" points="878.76,-763.08 868.89,-767.85 875.34,-767.17 872.55,-770.49 872.55,-770.49 872.55,-770.49 875.34,-767.17 875.79,-773.63 878.76,-763.08"/>
<text text-anchor="start" x="879.12" y="-781" font-family="Arial" font-size="10.00">FOREIGN KEY (operation_id) REFERENCES uasl_reservation.operations(id)</text>
</g>
<!-- uasl_reservation.uasl_reservations&#45;&gt;uasl_reservation.uasl_reservations -->
<g id="edge3" class="edge">
<title>uasl_reservation.uasl_reservations:parent_uasl_reservation_id&#45;&gt;uasl_reservation.uasl_reservations:id</title>
<path fill="none" stroke="black" d="M679.13,-1166.28C687.16,-1389.73 686.84,-1591 678.17,-1591 669.39,-1591 669.18,-1384.74 677.51,-1186.56"/>
<polygon fill="black" stroke="black" points="679.13,-1166.29 683.26,-1156.13 678.93,-1160.96 678.77,-1156.63 678.77,-1156.63 678.77,-1156.63 678.93,-1160.96 674.27,-1156.46 679.13,-1166.29"/>
<text text-anchor="start" x="685.75" y="-1165.96" font-family="Arial" font-size="10.00">FOREIGN KEY (parent_uasl_reservation_id) REFERENCES uasl_reservation.uasl_reservations(id)</text>
</g>
<!-- uasl_reservation.external_resource_reservations -->
<g id="node8" class="node">
<title>uasl_reservation.external_resource_reservations</title>
<polygon fill="#efefef" stroke="none" points="3015.75,-1002 3015.75,-1037.6 3500.59,-1037.6 3500.59,-1002 3015.75,-1002"/>
<polygon fill="none" stroke="black" points="3015.75,-1002 3015.75,-1037.6 3500.59,-1037.6 3500.59,-1002 3015.75,-1002"/>
<text text-anchor="start" x="3022.75" y="-1015.4" font-family="Arial Bold" font-size="18.00">uasl_reservation.external_resource_reservations</text>
<text text-anchor="start" x="3369.1" y="-1015.4" font-family="Arial" font-size="14.00">    </text>
<text text-anchor="start" x="3400.22" y="-1015.4" font-family="Arial" font-size="14.00" fill="#666666">[BASE TABLE]</text>
<polygon fill="none" stroke="black" points="3015.75,-971.2 3015.75,-1002 3500.59,-1002 3500.59,-971.2 3015.75,-971.2"/>
<text text-anchor="start" x="3022.75" y="-983.4" font-family="Arial" font-size="14.00">id </text>
<text text-anchor="start" x="3037.54" y="-983.4" font-family="Arial" font-size="14.00" fill="#666666">[uuid]</text>
<polygon fill="none" stroke="black" points="3015.75,-940.4 3015.75,-971.2 3500.59,-971.2 3500.59,-940.4 3015.75,-940.4"/>
<text text-anchor="start" x="3022.75" y="-952.6" font-family="Arial" font-size="14.00">request_id </text>
<text text-anchor="start" x="3092.02" y="-952.6" font-family="Arial" font-size="14.00" fill="#666666">[uuid]</text>
<polygon fill="none" stroke="black" points="3015.75,-909.6 3015.75,-940.4 3500.59,-940.4 3500.59,-909.6 3015.75,-909.6"/>
<text text-anchor="start" x="3022.75" y="-921.8" font-family="Arial" font-size="14.00">ex_administrator_id </text>
<text text-anchor="start" x="3148.81" y="-921.8" font-family="Arial" font-size="14.00" fill="#666666">[varchar(255)]</text>
<polygon fill="none" stroke="black" points="3015.75,-878.8 3015.75,-909.6 3500.59,-909.6 3500.59,-878.8 3015.75,-878.8"/>
<text text-anchor="start" x="3022.75" y="-891" font-family="Arial" font-size="14.00">ex_reservation_id </text>
<text text-anchor="start" x="3137.15" y="-891" font-family="Arial" font-size="14.00" fill="#666666">[varchar(255)]</text>
<polygon fill="none" stroke="black" points="3015.75,-848 3015.75,-878.8 3500.59,-878.8 3500.59,-848 3015.75,-848"/>
<text text-anchor="start" x="3022.75" y="-860.2" font-family="Arial" font-size="14.00">ex_resource_id </text>
<text text-anchor="start" x="3122.36" y="-860.2" font-family="Arial" font-size="14.00" fill="#666666">[varchar(255)]</text>
<polygon fill="none" stroke="black" points="3015.75,-817.2 3015.75,-848 3500.59,-848 3500.59,-817.2 3015.75,-817.2"/>
<text text-anchor="start" x="3022.75" y="-829.4" font-family="Arial" font-size="14.00">start_at </text>
<text text-anchor="start" x="3073.33" y="-829.4" font-family="Arial" font-size="14.00" fill="#666666">[timestamp(0) with time zone]</text>
<polygon fill="none" stroke="black" points="3015.75,-786.4 3015.75,-817.2 3500.59,-817.2 3500.59,-786.4 3015.75,-786.4"/>
<text text-anchor="start" x="3022.75" y="-798.6" font-family="Arial" font-size="14.00">end_at </text>
<text text-anchor="start" x="3069.46" y="-798.6" font-family="Arial" font-size="14.00" fill="#666666">[timestamp(0) with time zone]</text>
<polygon fill="none" stroke="black" points="3015.75,-755.6 3015.75,-786.4 3500.59,-786.4 3500.59,-755.6 3015.75,-755.6"/>
<text text-anchor="start" x="3022.75" y="-767.8" font-family="Arial" font-size="14.00">usage_type </text>
<text text-anchor="start" x="3099.03" y="-767.8" font-family="Arial" font-size="14.00" fill="#666666">[integer]</text>
<polygon fill="none" stroke="black" points="3015.75,-724.8 3015.75,-755.6 3500.59,-755.6 3500.59,-724.8 3015.75,-724.8"/>
<text text-anchor="start" x="3022.75" y="-737" font-family="Arial" font-size="14.00">amount </text>
<text text-anchor="start" x="3073.34" y="-737" font-family="Arial" font-size="14.00" fill="#666666">[integer]</text>
<polygon fill="none" stroke="black" points="3015.75,-694 3015.75,-724.8 3500.59,-724.8 3500.59,-694 3015.75,-694"/>
<text text-anchor="start" x="3022.75" y="-706.2" font-family="Arial" font-size="14.00">resource_type </text>
<text text-anchor="start" x="3115.36" y="-706.2" font-family="Arial" font-size="14.00" fill="#666666">[uasl_reservation.external_resource_type]</text>
<polygon fill="none" stroke="black" points="3015.75,-663.2 3015.75,-694 3500.59,-694 3500.59,-663.2 3015.75,-663.2"/>
<text text-anchor="start" x="3022.75" y="-675.4" font-family="Arial" font-size="14.00">created_at </text>
<text text-anchor="start" x="3092.8" y="-675.4" font-family="Arial" font-size="14.00" fill="#666666">[timestamp(0) with time zone]</text>
<polygon fill="none" stroke="black" points="3015.75,-632.4 3015.75,-663.2 3500.59,-663.2 3500.59,-632.4 3015.75,-632.4"/>
<text text-anchor="start" x="3022.75" y="-644.6" font-family="Arial" font-size="14.00">updated_at </text>
<text text-anchor="start" x="3096.71" y="-644.6" font-family="Arial" font-size="14.00" fill="#666666">[timestamp(0) with time zone]</text>
</g>
<!-- uasl_reservation.uasl_settlements -->
<g id="node9" class="node">
<title>uasl_reservation.uasl_settlements</title>
<polygon fill="#efefef" stroke="none" points="1993.21,-1032.8 1993.21,-1068.4 2373.13,-1068.4 2373.13,-1032.8 1993.21,-1032.8"/>
<polygon fill="none" stroke="black" points="1993.21,-1032.8 1993.21,-1068.4 2373.13,-1068.4 2373.13,-1032.8 1993.21,-1032.8"/>
<text text-anchor="start" x="2000.21" y="-1046.2" font-family="Arial Bold" font-size="18.00">uasl_reservation.uasl_settlements</text>
<text text-anchor="start" x="2241.64" y="-1046.2" font-family="Arial" font-size="14.00">    </text>
<text text-anchor="start" x="2272.76" y="-1046.2" font-family="Arial" font-size="14.00" fill="#666666">[BASE TABLE]</text>
<polygon fill="none" stroke="black" points="1993.21,-1002 1993.21,-1032.8 2373.13,-1032.8 2373.13,-1002 1993.21,-1002"/>
<text text-anchor="start" x="2000.21" y="-1014.2" font-family="Arial" font-size="14.00">id </text>
<text text-anchor="start" x="2014.99" y="-1014.2" font-family="Arial" font-size="14.00" fill="#666666">[uuid]</text>
<polygon fill="none" stroke="black" points="1993.21,-971.2 1993.21,-1002 2373.13,-1002 2373.13,-971.2 1993.21,-971.2"/>
<text text-anchor="start" x="2000.21" y="-983.4" font-family="Arial" font-size="14.00">ex_administrator_id </text>
<text text-anchor="start" x="2126.27" y="-983.4" font-family="Arial" font-size="14.00" fill="#666666">[varchar(255)]</text>
<polygon fill="none" stroke="black" points="1993.21,-940.4 1993.21,-971.2 2373.13,-971.2 2373.13,-940.4 1993.21,-940.4"/>
<text text-anchor="start" x="2000.21" y="-952.6" font-family="Arial" font-size="14.00">operator_id </text>
<text text-anchor="start" x="2074.92" y="-952.6" font-family="Arial" font-size="14.00" fill="#666666">[uuid]</text>
<polygon fill="none" stroke="black" points="1993.21,-909.6 1993.21,-940.4 2373.13,-940.4 2373.13,-909.6 1993.21,-909.6"/>
<text text-anchor="start" x="2000.21" y="-921.8" font-family="Arial" font-size="14.00">target_year_month </text>
<text text-anchor="start" x="2121.61" y="-921.8" font-family="Arial" font-size="14.00" fill="#666666">[date]</text>
<polygon fill="none" stroke="black" points="1993.21,-878.8 1993.21,-909.6 2373.13,-909.6 2373.13,-878.8 1993.21,-878.8"/>
<text text-anchor="start" x="2000.21" y="-891" font-family="Arial" font-size="14.00">uasl_reservation_ids </text>
<text text-anchor="start" x="2132.5" y="-891" font-family="Arial" font-size="14.00" fill="#666666">[uuid[]]</text>
<polygon fill="none" stroke="black" points="1993.21,-848 1993.21,-878.8 2373.13,-878.8 2373.13,-848 1993.21,-848"/>
<text text-anchor="start" x="2000.21" y="-860.2" font-family="Arial" font-size="14.00">total_amount </text>
<text text-anchor="start" x="2085.04" y="-860.2" font-family="Arial" font-size="14.00" fill="#666666">[integer]</text>
<polygon fill="none" stroke="black" points="1993.21,-817.2 1993.21,-848 2373.13,-848 2373.13,-817.2 1993.21,-817.2"/>
<text text-anchor="start" x="2000.21" y="-829.4" font-family="Arial" font-size="14.00">tax_rate </text>
<text text-anchor="start" x="2054.68" y="-829.4" font-family="Arial" font-size="14.00" fill="#666666">[numeric(5,4)]</text>
<polygon fill="none" stroke="black" points="1993.21,-786.4 1993.21,-817.2 2373.13,-817.2 2373.13,-786.4 1993.21,-786.4"/>
<text text-anchor="start" x="2000.21" y="-798.6" font-family="Arial" font-size="14.00">payment_confirmed_at </text>
<text text-anchor="start" x="2146.51" y="-798.6" font-family="Arial" font-size="14.00" fill="#666666">[timestamp(0) with time zone]</text>
<polygon fill="none" stroke="black" points="1993.21,-755.6 1993.21,-786.4 2373.13,-786.4 2373.13,-755.6 1993.21,-755.6"/>
<text text-anchor="start" x="2000.21" y="-767.8" font-family="Arial" font-size="14.00">submitted_at </text>
<text text-anchor="start" x="2084.26" y="-767.8" font-family="Arial" font-size="14.00" fill="#666666">[timestamp(0) with time zone]</text>
<polygon fill="none" stroke="black" points="1993.21,-724.8 1993.21,-755.6 2373.13,-755.6 2373.13,-724.8 1993.21,-724.8"/>
<text text-anchor="start" x="2000.21" y="-737" font-family="Arial" font-size="14.00">billed_at </text>
<text text-anchor="start" x="2056.25" y="-737" font-family="Arial" font-size="14.00" fill="#666666">[timestamp(0) with time zone]</text>
<polygon fill="none" stroke="black" points="1993.21,-694 1993.21,-724.8 2373.13,-724.8 2373.13,-694 1993.21,-694"/>
<text text-anchor="start" x="2000.21" y="-706.2" font-family="Arial" font-size="14.00">payment_due_at </text>
<text text-anchor="start" x="2108.4" y="-706.2" font-family="Arial" font-size="14.00" fill="#666666">[timestamp(0) with time zone]</text>
<polygon fill="none" stroke="black" points="1993.21,-663.2 1993.21,-694 2373.13,-694 2373.13,-663.2 1993.21,-663.2"/>
<text text-anchor="start" x="2000.21" y="-675.4" font-family="Arial" font-size="14.00">paid_at </text>
<text text-anchor="start" x="2050.03" y="-675.4" font-family="Arial" font-size="14.00" fill="#666666">[timestamp(0) with time zone]</text>
<polygon fill="none" stroke="black" points="1993.21,-632.4 1993.21,-663.2 2373.13,-663.2 2373.13,-632.4 1993.21,-632.4"/>
<text text-anchor="start" x="2000.21" y="-644.6" font-family="Arial" font-size="14.00">created_at </text>
<text text-anchor="start" x="2070.26" y="-644.6" font-family="Arial" font-size="14.00" fill="#666666">[timestamp(0) with time zone]</text>
<polygon fill="none" stroke="black" points="1993.21,-601.6 1993.21,-632.4 2373.13,-632.4 2373.13,-601.6 1993.21,-601.6"/>
<text text-anchor="start" x="2000.21" y="-613.8" font-family="Arial" font-size="14.00">updated_at </text>
<text text-anchor="start" x="2074.17" y="-613.8" font-family="Arial" font-size="14.00" fill="#666666">[timestamp(0) with time zone]</text>
</g>
<!-- uasl_reservation.uasl_settlements&#45;&gt;uasl_reservation.uasl_administrators -->
<g id="edge4" class="edge">
<title>uasl_reservation.uasl_settlements:ex_administrator_id&#45;&gt;uasl_reservation.uasl_administrators:ex_administrator_id</title>
<path fill="none" stroke="black" d="M1982.28,-985.24C1902,-961.89 1965.57,-645.76 1993.21,-558.4 2024.29,-460.14 2094.77,-466.57 2126.13,-368.4 2143.04,-315.48 2182.69,-243.4 2127.13,-243.4"/>
<polygon fill="black" stroke="black" points="1981.97,-985.19 1991.26,-991.01 1987.25,-985.92 1991.54,-986.51 1991.54,-986.51 1991.54,-986.51 1987.25,-985.92 1992.49,-982.1 1981.97,-985.19"/>
<text text-anchor="start" x="1489.47" y="-996.6" font-family="Arial" font-size="10.00">FOREIGN KEY (ex_administrator_id) REFERENCES uasl_reservation.uasl_administrators(ex_administrator_id)</text>
</g>
</g>
</svg>
