<?xml version="1.0" encoding="UTF-8" standalone="no"?>
<!DOCTYPE svg PUBLIC "-//W3C//DTD SVG 1.1//EN"
 "http://www.w3.org/Graphics/SVG/1.1/DTD/svg11.dtd">
<!-- Generated by graphviz version 12.1.2 (20240928.0832)
 -->
<!-- Title: uasl_reservation.external_uasl_definitions Pages: 1 -->
<svg width="1008pt" height="941pt"
 viewBox="0.00 0.00 1007.83 940.80" xmlns="http://www.w3.org/2000/svg" xmlns:xlink="http://www.w3.org/1999/xlink">
<g id="graph0" class="graph" transform="scale(1 1) rotate(0) translate(4 936.8)">
<title>uasl_reservation.external_uasl_definitions</title>
<polygon fill="white" stroke="none" points="-4,4 -4,-936.8 1003.83,-936.8 1003.83,4 -4,4"/>
<!-- uasl_reservation.external_uasl_definitions -->
<g id="node1" class="node">
<title>uasl_reservation.external_uasl_definitions</title>
<polygon fill="#efefef" stroke="none" points="46.2,-851 46.2,-886.6 489.1,-886.6 489.1,-851 46.2,-851"/>
<polygon fill="none" stroke="black" points="46.2,-851 46.2,-886.6 489.1,-886.6 489.1,-851 46.2,-851"/>
<text text-anchor="start" x="53.2" y="-864.4" font-family="Arial Bold" font-size="18.00">uasl_reservation.external_uasl_definitions</text>
<text text-anchor="start" x="357.61" y="-864.4" font-family="Arial" font-size="14.00">    </text>
<text text-anchor="start" x="388.73" y="-864.4" font-family="Arial" font-size="14.00" fill="#666666">[BASE TABLE]</text>
<polygon fill="none" stroke="black" points="46.2,-820.2 46.2,-851 489.1,-851 489.1,-820.2 46.2,-820.2"/>
<text text-anchor="start" x="53.2" y="-832.4" font-family="Arial" font-size="14.00">id </text>
<text text-anchor="start" x="67.99" y="-832.4" font-family="Arial" font-size="14.00" fill="#666666">[uuid]</text>
<polygon fill="none" stroke="black" points="46.2,-789.4 46.2,-820.2 489.1,-820.2 489.1,-789.4 46.2,-789.4"/>
<text text-anchor="start" x="53.2" y="-801.6" font-family="Arial" font-size="14.00">ex_uasl_section_id </text>
<text text-anchor="start" x="176.17" y="-801.6" font-family="Arial" font-size="14.00" fill="#666666">[varchar(255)]</text>
<polygon fill="none" stroke="black" points="46.2,-758.6 46.2,-789.4 489.1,-789.4 489.1,-758.6 46.2,-758.6"/>
<text text-anchor="start" x="53.2" y="-770.8" font-family="Arial" font-size="14.00">ex_uasl_id </text>
<text text-anchor="start" x="124.03" y="-770.8" font-family="Arial" font-size="14.00" fill="#666666">[varchar(255)]</text>
<polygon fill="none" stroke="black" points="46.2,-727.8 46.2,-758.6 489.1,-758.6 489.1,-727.8 46.2,-727.8"/>
<text text-anchor="start" x="53.2" y="-740" font-family="Arial" font-size="14.00">ex_administrator_id </text>
<text text-anchor="start" x="179.26" y="-740" font-family="Arial" font-size="14.00" fill="#666666">[varchar(255)]</text>
<polygon fill="none" stroke="black" points="46.2,-697 46.2,-727.8 489.1,-727.8 489.1,-697 46.2,-697"/>
<text text-anchor="start" x="53.2" y="-709.2" font-family="Arial" font-size="14.00">geometry </text>
<text text-anchor="start" x="115.45" y="-709.2" font-family="Arial" font-size="14.00" fill="#666666">[geometry]</text>
<polygon fill="none" stroke="black" points="46.2,-666.2 46.2,-697 489.1,-697 489.1,-666.2 46.2,-666.2"/>
<text text-anchor="start" x="53.2" y="-678.4" font-family="Arial" font-size="14.00">point_ids </text>
<text text-anchor="start" x="113.13" y="-678.4" font-family="Arial" font-size="14.00" fill="#666666">[text[]]</text>
<polygon fill="none" stroke="black" points="46.2,-635.4 46.2,-666.2 489.1,-666.2 489.1,-635.4 46.2,-635.4"/>
<text text-anchor="start" x="53.2" y="-647.6" font-family="Arial" font-size="14.00">flight_purpose </text>
<text text-anchor="start" x="145.04" y="-647.6" font-family="Arial" font-size="14.00" fill="#666666">[varchar(255)]</text>
<polygon fill="none" stroke="black" points="46.2,-604.6 46.2,-635.4 489.1,-635.4 489.1,-604.6 46.2,-604.6"/>
<text text-anchor="start" x="53.2" y="-616.8" font-family="Arial" font-size="14.00">price_info </text>
<text text-anchor="start" x="117.79" y="-616.8" font-family="Arial" font-size="14.00" fill="#666666">[jsonb]</text>
<polygon fill="none" stroke="black" points="46.2,-573.8 46.2,-604.6 489.1,-604.6 489.1,-573.8 46.2,-573.8"/>
<text text-anchor="start" x="53.2" y="-586" font-family="Arial" font-size="14.00">price_timezone </text>
<text text-anchor="start" x="152.03" y="-586" font-family="Arial" font-size="14.00" fill="#666666">[varchar(50)]</text>
<polygon fill="none" stroke="black" points="46.2,-543 46.2,-573.8 489.1,-573.8 489.1,-543 46.2,-543"/>
<text text-anchor="start" x="53.2" y="-555.2" font-family="Arial" font-size="14.00">price_version </text>
<text text-anchor="start" x="140.35" y="-555.2" font-family="Arial" font-size="14.00" fill="#666666">[integer]</text>
<polygon fill="none" stroke="black" points="46.2,-512.2 46.2,-543 489.1,-543 489.1,-512.2 46.2,-512.2"/>
<text text-anchor="start" x="53.2" y="-524.4" font-family="Arial" font-size="14.00">status </text>
<text text-anchor="start" x="94.44" y="-524.4" font-family="Arial" font-size="14.00" fill="#666666">[uasl_reservation.uasl_section_status]</text>
<polygon fill="none" stroke="black" points="46.2,-481.4 46.2,-512.2 489.1,-512.2 489.1,-481.4 46.2,-481.4"/>
<text text-anchor="start" x="53.2" y="-493.6" font-family="Arial" font-size="14.00">created_at </text>
<text text-anchor="start" x="123.25" y="-493.6" font-family="Arial" font-size="14.00" fill="#666666">[timestamp(0) with time zone]</text>
<polygon fill="none" stroke="black" points="46.2,-450.6 46.2,-481.4 489.1,-481.4 489.1,-450.6 46.2,-450.6"/>
<text text-anchor="start" x="53.2" y="-462.8" font-family="Arial" font-size="14.00">updated_at </text>
<text text-anchor="start" x="127.16" y="-462.8" font-family="Arial" font-size="14.00" fill="#666666">[timestamp(0) with time zone]</text>
<polygon fill="none" stroke="black" stroke-width="3" points="44.7,-449.1 44.7,-888.1 490.6,-888.1 490.6,-449.1 44.7,-449.1"/>
</g>
<!-- uasl_reservation.uasl_administrators -->
<g id="node2" class="node">
<title>uasl_reservation.uasl_administrators</title>
<polygon fill="#efefef" stroke="none" points="66.69,-289.6 66.69,-325.2 468.61,-325.2 468.61,-289.6 66.69,-289.6"/>
<polygon fill="none" stroke="black" points="66.69,-289.6 66.69,-325.2 468.61,-325.2 468.61,-289.6 66.69,-289.6"/>
<text text-anchor="start" x="73.69" y="-303" font-family="Arial Bold" font-size="18.00">uasl_reservation.uasl_administrators</text>
<text text-anchor="start" x="337.12" y="-303" font-family="Arial" font-size="14.00">    </text>
<text text-anchor="start" x="368.24" y="-303" font-family="Arial" font-size="14.00" fill="#666666">[BASE TABLE]</text>
<polygon fill="none" stroke="black" points="66.69,-258.8 66.69,-289.6 468.61,-289.6 468.61,-258.8 66.69,-258.8"/>
<text text-anchor="start" x="73.69" y="-271" font-family="Arial" font-size="14.00">id </text>
<text text-anchor="start" x="88.47" y="-271" font-family="Arial" font-size="14.00" fill="#666666">[uuid]</text>
<polygon fill="none" stroke="black" points="66.69,-228 66.69,-258.8 468.61,-258.8 468.61,-228 66.69,-228"/>
<text text-anchor="start" x="73.69" y="-240.2" font-family="Arial" font-size="14.00">ex_administrator_id </text>
<text text-anchor="start" x="199.75" y="-240.2" font-family="Arial" font-size="14.00" fill="#666666">[varchar(255)]</text>
<polygon fill="none" stroke="black" points="66.69,-197.2 66.69,-228 468.61,-228 468.61,-197.2 66.69,-197.2"/>
<text text-anchor="start" x="73.69" y="-209.4" font-family="Arial" font-size="14.00">business_number </text>
<text text-anchor="start" x="188.09" y="-209.4" font-family="Arial" font-size="14.00" fill="#666666">[varchar(255)]</text>
<polygon fill="none" stroke="black" points="66.69,-166.4 66.69,-197.2 468.61,-197.2 468.61,-166.4 66.69,-166.4"/>
<text text-anchor="start" x="73.69" y="-178.6" font-family="Arial" font-size="14.00">name </text>
<text text-anchor="start" x="112.6" y="-178.6" font-family="Arial" font-size="14.00" fill="#666666">[varchar(255)]</text>
<polygon fill="none" stroke="black" points="66.69,-135.6 66.69,-166.4 468.61,-166.4 468.61,-135.6 66.69,-135.6"/>
<text text-anchor="start" x="73.69" y="-147.8" font-family="Arial" font-size="14.00">is_internal </text>
<text text-anchor="start" x="141.39" y="-147.8" font-family="Arial" font-size="14.00" fill="#666666">[boolean]</text>
<polygon fill="none" stroke="black" points="66.69,-104.8 66.69,-135.6 468.61,-135.6 468.61,-104.8 66.69,-104.8"/>
<text text-anchor="start" x="73.69" y="-117" font-family="Arial" font-size="14.00">external_services </text>
<text text-anchor="start" x="186.51" y="-117" font-family="Arial" font-size="14.00" fill="#666666">[jsonb]</text>
<polygon fill="none" stroke="black" points="66.69,-74 66.69,-104.8 468.61,-104.8 468.61,-74 66.69,-74"/>
<text text-anchor="start" x="73.69" y="-86.2" font-family="Arial" font-size="14.00">created_at </text>
<text text-anchor="start" x="143.74" y="-86.2" font-family="Arial" font-size="14.00" fill="#666666">[timestamp(0) with time zone]</text>
<polygon fill="none" stroke="black" points="66.69,-43.2 66.69,-74 468.61,-74 468.61,-43.2 66.69,-43.2"/>
<text text-anchor="start" x="73.69" y="-55.4" font-family="Arial" font-size="14.00">updated_at </text>
<text text-anchor="start" x="147.65" y="-55.4" font-family="Arial" font-size="14.00" fill="#666666">[timestamp(0) with time zone]</text>
</g>
<!-- uasl_reservation.external_uasl_definitions&#45;&gt;uasl_reservation.uasl_administrators -->
<g id="edge1" class="edge">
<title>uasl_reservation.external_uasl_definitions:ex_administrator_id&#45;&gt;uasl_reservation.uasl_administrators:ex_administrator_id</title>
<path fill="none" stroke="black" d="M500.14,-741.77C599.89,-712.45 577.3,-243.4 469.61,-243.4"/>
<polygon fill="black" stroke="black" points="500.33,-741.74 489.79,-738.7 495.05,-742.49 490.76,-743.11 490.76,-743.11 490.76,-743.11 495.05,-742.49 491.07,-747.61 500.33,-741.74"/>
<text text-anchor="start" x="497.1" y="-753.2" font-family="Arial" font-size="10.00">FOREIGN KEY (ex_administrator_id) REFERENCES uasl_reservation.uasl_administrators(ex_administrator_id)</text>
</g>
</g>
</svg>
