<?xml version="1.0" encoding="UTF-8" standalone="no"?>
<!DOCTYPE svg PUBLIC "-//W3C//DTD SVG 1.1//EN"
 "http://www.w3.org/Graphics/SVG/1.1/DTD/svg11.dtd">
<!-- Generated by graphviz version 12.1.2 (20240928.0832)
 -->
<!-- Title: uasl_reservation.operations Pages: 1 -->
<svg width="796pt" height="1080pt"
 viewBox="0.00 0.00 796.13 1080.22" xmlns="http://www.w3.org/2000/svg" xmlns:xlink="http://www.w3.org/1999/xlink">
<g id="graph0" class="graph" transform="scale(1 1) rotate(0) translate(4 1076.22)">
<title>uasl_reservation.operations</title>
<polygon fill="white" stroke="none" points="-4,4 -4,-1076.22 792.13,-1076.22 792.13,4 -4,4"/>
<!-- uasl_reservation.operations -->
<g id="node1" class="node">
<title>uasl_reservation.operations</title>
<polygon fill="#efefef" stroke="none" points="68.19,-93.22 68.19,-128.82 404.12,-128.82 404.12,-93.22 68.19,-93.22"/>
<polygon fill="none" stroke="black" points="68.19,-93.22 68.19,-128.82 404.12,-128.82 404.12,-93.22 68.19,-93.22"/>
<text text-anchor="start" x="75.19" y="-106.62" font-family="Arial Bold" font-size="18.00">uasl_reservation.operations</text>
<text text-anchor="start" x="272.63" y="-106.62" font-family="Arial" font-size="14.00">    </text>
<text text-anchor="start" x="303.75" y="-106.62" font-family="Arial" font-size="14.00" fill="#666666">[BASE TABLE]</text>
<polygon fill="none" stroke="black" points="68.19,-62.42 68.19,-93.22 404.12,-93.22 404.12,-62.42 68.19,-62.42"/>
<text text-anchor="start" x="75.19" y="-74.62" font-family="Arial" font-size="14.00">id </text>
<text text-anchor="start" x="89.98" y="-74.62" font-family="Arial" font-size="14.00" fill="#666666">[uuid]</text>
<polygon fill="none" stroke="black" stroke-width="3" points="66.69,-60.92 66.69,-130.32 405.62,-130.32 405.62,-60.92 66.69,-60.92"/>
</g>
<!-- uasl_reservation.uasl_reservations -->
<g id="node2" class="node">
<title>uasl_reservation.uasl_reservations</title>
<polygon fill="#efefef" stroke="none" points="43.2,-993.42 43.2,-1029.02 429.11,-1029.02 429.11,-993.42 43.2,-993.42"/>
<polygon fill="none" stroke="black" points="43.2,-993.42 43.2,-1029.02 429.11,-1029.02 429.11,-993.42 43.2,-993.42"/>
<text text-anchor="start" x="50.2" y="-1006.82" font-family="Arial Bold" font-size="18.00">uasl_reservation.uasl_reservations</text>
<text text-anchor="start" x="297.62" y="-1006.82" font-family="Arial" font-size="14.00">    </text>
<text text-anchor="start" x="328.74" y="-1006.82" font-family="Arial" font-size="14.00" fill="#666666">[BASE TABLE]</text>
<polygon fill="none" stroke="black" points="43.2,-962.62 43.2,-993.42 429.11,-993.42 429.11,-962.62 43.2,-962.62"/>
<text text-anchor="start" x="50.2" y="-974.82" font-family="Arial" font-size="14.00">id </text>
<text text-anchor="start" x="64.99" y="-974.82" font-family="Arial" font-size="14.00" fill="#666666">[uuid]</text>
<polygon fill="none" stroke="black" points="43.2,-931.82 43.2,-962.62 429.11,-962.62 429.11,-931.82 43.2,-931.82"/>
<text text-anchor="start" x="50.2" y="-944.02" font-family="Arial" font-size="14.00">parent_uasl_reservation_id </text>
<text text-anchor="start" x="222.98" y="-944.02" font-family="Arial" font-size="14.00" fill="#666666">[uuid]</text>
<polygon fill="none" stroke="black" points="43.2,-901.02 43.2,-931.82 429.11,-931.82 429.11,-901.02 43.2,-901.02"/>
<text text-anchor="start" x="50.2" y="-913.22" font-family="Arial" font-size="14.00">request_id </text>
<text text-anchor="start" x="119.47" y="-913.22" font-family="Arial" font-size="14.00" fill="#666666">[uuid]</text>
<polygon fill="none" stroke="black" points="43.2,-870.22 43.2,-901.02 429.11,-901.02 429.11,-870.22 43.2,-870.22"/>
<text text-anchor="start" x="50.2" y="-882.42" font-family="Arial" font-size="14.00">ex_uasl_section_id </text>
<text text-anchor="start" x="173.17" y="-882.42" font-family="Arial" font-size="14.00" fill="#666666">[varchar(255)]</text>
<polygon fill="none" stroke="black" points="43.2,-839.42 43.2,-870.22 429.11,-870.22 429.11,-839.42 43.2,-839.42"/>
<text text-anchor="start" x="50.2" y="-851.62" font-family="Arial" font-size="14.00">ex_uasl_id </text>
<text text-anchor="start" x="121.03" y="-851.62" font-family="Arial" font-size="14.00" fill="#666666">[varchar(255)]</text>
<polygon fill="none" stroke="black" points="43.2,-808.62 43.2,-839.42 429.11,-839.42 429.11,-808.62 43.2,-808.62"/>
<text text-anchor="start" x="50.2" y="-820.82" font-family="Arial" font-size="14.00">ex_administrator_id </text>
<text text-anchor="start" x="176.26" y="-820.82" font-family="Arial" font-size="14.00" fill="#666666">[varchar(255)]</text>
<polygon fill="none" stroke="black" points="43.2,-777.82 43.2,-808.62 429.11,-808.62 429.11,-777.82 43.2,-777.82"/>
<text text-anchor="start" x="50.2" y="-790.02" font-family="Arial" font-size="14.00">start_at </text>
<text text-anchor="start" x="100.78" y="-790.02" font-family="Arial" font-size="14.00" fill="#666666">[timestamp(0) with time zone]</text>
<polygon fill="none" stroke="black" points="43.2,-747.02 43.2,-777.82 429.11,-777.82 429.11,-747.02 43.2,-747.02"/>
<text text-anchor="start" x="50.2" y="-759.22" font-family="Arial" font-size="14.00">end_at </text>
<text text-anchor="start" x="96.91" y="-759.22" font-family="Arial" font-size="14.00" fill="#666666">[timestamp(0) with time zone]</text>
<polygon fill="none" stroke="black" points="43.2,-716.22 43.2,-747.02 429.11,-747.02 429.11,-716.22 43.2,-716.22"/>
<text text-anchor="start" x="50.2" y="-728.42" font-family="Arial" font-size="14.00">accepted_at </text>
<text text-anchor="start" x="130.37" y="-728.42" font-family="Arial" font-size="14.00" fill="#666666">[timestamp(0) with time zone]</text>
<polygon fill="none" stroke="black" points="43.2,-685.42 43.2,-716.22 429.11,-716.22 429.11,-685.42 43.2,-685.42"/>
<text text-anchor="start" x="50.2" y="-697.62" font-family="Arial" font-size="14.00">airspace_id </text>
<text text-anchor="start" x="125.69" y="-697.62" font-family="Arial" font-size="14.00" fill="#666666">[uuid]</text>
<polygon fill="none" stroke="black" points="43.2,-654.62 43.2,-685.42 429.11,-685.42 429.11,-654.62 43.2,-654.62"/>
<text text-anchor="start" x="50.2" y="-666.82" font-family="Arial" font-size="14.00">ex_reserved_by </text>
<text text-anchor="start" x="153.7" y="-666.82" font-family="Arial" font-size="14.00" fill="#666666">[uuid]</text>
<polygon fill="none" stroke="black" points="43.2,-623.82 43.2,-654.62 429.11,-654.62 429.11,-623.82 43.2,-623.82"/>
<text text-anchor="start" x="50.2" y="-636.02" font-family="Arial" font-size="14.00">organization_id </text>
<text text-anchor="start" x="149.05" y="-636.02" font-family="Arial" font-size="14.00" fill="#666666">[uuid]</text>
<polygon fill="none" stroke="black" points="43.2,-593.02 43.2,-623.82 429.11,-623.82 429.11,-593.02 43.2,-593.02"/>
<text text-anchor="start" x="50.2" y="-605.22" font-family="Arial" font-size="14.00">project_id </text>
<text text-anchor="start" x="114.79" y="-605.22" font-family="Arial" font-size="14.00" fill="#666666">[uuid]</text>
<polygon fill="none" stroke="black" points="43.2,-562.22 43.2,-593.02 429.11,-593.02 429.11,-562.22 43.2,-562.22"/>
<text text-anchor="start" x="50.2" y="-574.42" font-family="Arial" font-size="14.00">operation_id </text>
<text text-anchor="start" x="131.15" y="-574.42" font-family="Arial" font-size="14.00" fill="#666666">[uuid]</text>
<polygon fill="none" stroke="black" points="43.2,-531.42 43.2,-562.22 429.11,-562.22 429.11,-531.42 43.2,-531.42"/>
<text text-anchor="start" x="50.2" y="-543.62" font-family="Arial" font-size="14.00">status </text>
<text text-anchor="start" x="91.44" y="-543.62" font-family="Arial" font-size="14.00" fill="#666666">[uasl_reservation.reservation_status]</text>
<polygon fill="none" stroke="black" points="43.2,-500.62 43.2,-531.42 429.11,-531.42 429.11,-500.62 43.2,-500.62"/>
<text text-anchor="start" x="50.2" y="-512.82" font-family="Arial" font-size="14.00">pricing_rule_version </text>
<text text-anchor="start" x="179.38" y="-512.82" font-family="Arial" font-size="14.00" fill="#666666">[integer]</text>
<polygon fill="none" stroke="black" points="43.2,-469.82 43.2,-500.62 429.11,-500.62 429.11,-469.82 43.2,-469.82"/>
<text text-anchor="start" x="50.2" y="-482.02" font-family="Arial" font-size="14.00">amount </text>
<text text-anchor="start" x="100.79" y="-482.02" font-family="Arial" font-size="14.00" fill="#666666">[integer]</text>
<polygon fill="none" stroke="black" points="43.2,-439.02 43.2,-469.82 429.11,-469.82 429.11,-439.02 43.2,-439.02"/>
<text text-anchor="start" x="50.2" y="-451.22" font-family="Arial" font-size="14.00">estimated_at </text>
<text text-anchor="start" x="134.25" y="-451.22" font-family="Arial" font-size="14.00" fill="#666666">[timestamp(0) with time zone]</text>
<polygon fill="none" stroke="black" points="43.2,-408.22 43.2,-439.02 429.11,-439.02 429.11,-408.22 43.2,-408.22"/>
<text text-anchor="start" x="50.2" y="-420.42" font-family="Arial" font-size="14.00">fixed_at </text>
<text text-anchor="start" x="103.12" y="-420.42" font-family="Arial" font-size="14.00" fill="#666666">[timestamp(0) with time zone]</text>
<polygon fill="none" stroke="black" points="43.2,-377.42 43.2,-408.22 429.11,-408.22 429.11,-377.42 43.2,-377.42"/>
<text text-anchor="start" x="50.2" y="-389.62" font-family="Arial" font-size="14.00">sequence </text>
<text text-anchor="start" x="114.81" y="-389.62" font-family="Arial" font-size="14.00" fill="#666666">[integer]</text>
<polygon fill="none" stroke="black" points="43.2,-346.62 43.2,-377.42 429.11,-377.42 429.11,-346.62 43.2,-346.62"/>
<text text-anchor="start" x="50.2" y="-358.82" font-family="Arial" font-size="14.00">conformity_assessment </text>
<text text-anchor="start" x="201.14" y="-358.82" font-family="Arial" font-size="14.00" fill="#666666">[jsonb]</text>
<polygon fill="none" stroke="black" points="43.2,-315.82 43.2,-346.62 429.11,-346.62 429.11,-315.82 43.2,-315.82"/>
<text text-anchor="start" x="50.2" y="-328.02" font-family="Arial" font-size="14.00">destination_reservations </text>
<text text-anchor="start" x="205.85" y="-328.02" font-family="Arial" font-size="14.00" fill="#666666">[jsonb]</text>
<polygon fill="none" stroke="black" points="43.2,-285.02 43.2,-315.82 429.11,-315.82 429.11,-285.02 43.2,-285.02"/>
<text text-anchor="start" x="50.2" y="-297.22" font-family="Arial" font-size="14.00">created_at </text>
<text text-anchor="start" x="120.25" y="-297.22" font-family="Arial" font-size="14.00" fill="#666666">[timestamp(0) with time zone]</text>
<polygon fill="none" stroke="black" points="43.2,-254.22 43.2,-285.02 429.11,-285.02 429.11,-254.22 43.2,-254.22"/>
<text text-anchor="start" x="50.2" y="-266.42" font-family="Arial" font-size="14.00">updated_at </text>
<text text-anchor="start" x="124.16" y="-266.42" font-family="Arial" font-size="14.00" fill="#666666">[timestamp(0) with time zone]</text>
</g>
<!-- uasl_reservation.uasl_reservations&#45;&gt;uasl_reservation.operations -->
<g id="edge1" class="edge">
<title>uasl_reservation.uasl_reservations:operation_id&#45;&gt;uasl_reservation.operations:id</title>
<path fill="none" stroke="black" d="M439.33,-573.22C487.64,-525.25 488.44,-100.73 450.32,-62.42 383.17,5.04 236.16,33.76 236.16,-61.42"/>
<polygon fill="black" stroke="black" points="439.44,-573.17 428.47,-573.42 434.62,-575.47 430.71,-577.33 430.71,-577.33 430.71,-577.33 434.62,-575.47 432.35,-581.54 439.44,-573.17"/>
<text text-anchor="start" x="437.11" y="-587.62" font-family="Arial" font-size="10.00">FOREIGN KEY (operation_id) REFERENCES uasl_reservation.operations(id)</text>
</g>
</g>
</svg>
