<?xml version="1.0" encoding="UTF-8" standalone="no"?>
<!DOCTYPE svg PUBLIC "-//W3C//DTD SVG 1.1//EN"
 "http://www.w3.org/Graphics/SVG/1.1/DTD/svg11.dtd">
<!-- Generated by graphviz version 12.1.2 (20240928.0832)
 -->
<!-- Title: uasl_reservation.external_resource_reservations Pages: 1 -->
<svg width="585pt" height="506pt"
 viewBox="0.00 0.00 585.24 505.60" xmlns="http://www.w3.org/2000/svg" xmlns:xlink="http://www.w3.org/1999/xlink">
<g id="graph0" class="graph" transform="scale(1 1) rotate(0) translate(4 501.6)">
<title>uasl_reservation.external_resource_reservations</title>
<polygon fill="white" stroke="none" points="-4,4 -4,-501.6 581.24,-501.6 581.24,4 -4,4"/>
<!-- uasl_reservation.external_resource_reservations -->
<g id="node1" class="node">
<title>uasl_reservation.external_resource_reservations</title>
<polygon fill="#efefef" stroke="none" points="46.2,-415.8 46.2,-451.4 531.04,-451.4 531.04,-415.8 46.2,-415.8"/>
<polygon fill="none" stroke="black" points="46.2,-415.8 46.2,-451.4 531.04,-451.4 531.04,-415.8 46.2,-415.8"/>
<text text-anchor="start" x="53.2" y="-429.2" font-family="Arial Bold" font-size="18.00">uasl_reservation.external_resource_reservations</text>
<text text-anchor="start" x="399.55" y="-429.2" font-family="Arial" font-size="14.00">    </text>
<text text-anchor="start" x="430.67" y="-429.2" font-family="Arial" font-size="14.00" fill="#666666">[BASE TABLE]</text>
<polygon fill="none" stroke="black" points="46.2,-385 46.2,-415.8 531.04,-415.8 531.04,-385 46.2,-385"/>
<text text-anchor="start" x="53.2" y="-397.2" font-family="Arial" font-size="14.00">id </text>
<text text-anchor="start" x="67.99" y="-397.2" font-family="Arial" font-size="14.00" fill="#666666">[uuid]</text>
<polygon fill="none" stroke="black" points="46.2,-354.2 46.2,-385 531.04,-385 531.04,-354.2 46.2,-354.2"/>
<text text-anchor="start" x="53.2" y="-366.4" font-family="Arial" font-size="14.00">request_id </text>
<text text-anchor="start" x="122.47" y="-366.4" font-family="Arial" font-size="14.00" fill="#666666">[uuid]</text>
<polygon fill="none" stroke="black" points="46.2,-323.4 46.2,-354.2 531.04,-354.2 531.04,-323.4 46.2,-323.4"/>
<text text-anchor="start" x="53.2" y="-335.6" font-family="Arial" font-size="14.00">ex_administrator_id </text>
<text text-anchor="start" x="179.26" y="-335.6" font-family="Arial" font-size="14.00" fill="#666666">[varchar(255)]</text>
<polygon fill="none" stroke="black" points="46.2,-292.6 46.2,-323.4 531.04,-323.4 531.04,-292.6 46.2,-292.6"/>
<text text-anchor="start" x="53.2" y="-304.8" font-family="Arial" font-size="14.00">ex_reservation_id </text>
<text text-anchor="start" x="167.6" y="-304.8" font-family="Arial" font-size="14.00" fill="#666666">[varchar(255)]</text>
<polygon fill="none" stroke="black" points="46.2,-261.8 46.2,-292.6 531.04,-292.6 531.04,-261.8 46.2,-261.8"/>
<text text-anchor="start" x="53.2" y="-274" font-family="Arial" font-size="14.00">ex_resource_id </text>
<text text-anchor="start" x="152.81" y="-274" font-family="Arial" font-size="14.00" fill="#666666">[varchar(255)]</text>
<polygon fill="none" stroke="black" points="46.2,-231 46.2,-261.8 531.04,-261.8 531.04,-231 46.2,-231"/>
<text text-anchor="start" x="53.2" y="-243.2" font-family="Arial" font-size="14.00">start_at </text>
<text text-anchor="start" x="103.78" y="-243.2" font-family="Arial" font-size="14.00" fill="#666666">[timestamp(0) with time zone]</text>
<polygon fill="none" stroke="black" points="46.2,-200.2 46.2,-231 531.04,-231 531.04,-200.2 46.2,-200.2"/>
<text text-anchor="start" x="53.2" y="-212.4" font-family="Arial" font-size="14.00">end_at </text>
<text text-anchor="start" x="99.91" y="-212.4" font-family="Arial" font-size="14.00" fill="#666666">[timestamp(0) with time zone]</text>
<polygon fill="none" stroke="black" points="46.2,-169.4 46.2,-200.2 531.04,-200.2 531.04,-169.4 46.2,-169.4"/>
<text text-anchor="start" x="53.2" y="-181.6" font-family="Arial" font-size="14.00">usage_type </text>
<text text-anchor="start" x="129.48" y="-181.6" font-family="Arial" font-size="14.00" fill="#666666">[integer]</text>
<polygon fill="none" stroke="black" points="46.2,-138.6 46.2,-169.4 531.04,-169.4 531.04,-138.6 46.2,-138.6"/>
<text text-anchor="start" x="53.2" y="-150.8" font-family="Arial" font-size="14.00">amount </text>
<text text-anchor="start" x="103.79" y="-150.8" font-family="Arial" font-size="14.00" fill="#666666">[integer]</text>
<polygon fill="none" stroke="black" points="46.2,-107.8 46.2,-138.6 531.04,-138.6 531.04,-107.8 46.2,-107.8"/>
<text text-anchor="start" x="53.2" y="-120" font-family="Arial" font-size="14.00">resource_type </text>
<text text-anchor="start" x="145.81" y="-120" font-family="Arial" font-size="14.00" fill="#666666">[uasl_reservation.external_resource_type]</text>
<polygon fill="none" stroke="black" points="46.2,-77 46.2,-107.8 531.04,-107.8 531.04,-77 46.2,-77"/>
<text text-anchor="start" x="53.2" y="-89.2" font-family="Arial" font-size="14.00">created_at </text>
<text text-anchor="start" x="123.25" y="-89.2" font-family="Arial" font-size="14.00" fill="#666666">[timestamp(0) with time zone]</text>
<polygon fill="none" stroke="black" points="46.2,-46.2 46.2,-77 531.04,-77 531.04,-46.2 46.2,-46.2"/>
<text text-anchor="start" x="53.2" y="-58.4" font-family="Arial" font-size="14.00">updated_at </text>
<text text-anchor="start" x="127.16" y="-58.4" font-family="Arial" font-size="14.00" fill="#666666">[timestamp(0) with time zone]</text>
<polygon fill="none" stroke="black" stroke-width="3" points="44.7,-44.7 44.7,-452.9 532.54,-452.9 532.54,-44.7 44.7,-44.7"/>
</g>
</g>
</svg>
