<?xml version="1.0" encoding="UTF-8" standalone="no"?>
<!DOCTYPE svg PUBLIC "-//W3C//DTD SVG 1.1//EN"
 "http://www.w3.org/Graphics/SVG/1.1/DTD/svg11.dtd">
<!-- Generated by graphviz version 12.1.2 (20240928.0832)
 -->
<!-- Title: uasl_reservation.migrations Pages: 1 -->
<svg width="438pt" height="198pt"
 viewBox="0.00 0.00 438.34 197.60" xmlns="http://www.w3.org/2000/svg" xmlns:xlink="http://www.w3.org/1999/xlink">
<g id="graph0" class="graph" transform="scale(1 1) rotate(0) translate(4 193.6)">
<title>uasl_reservation.migrations</title>
<polygon fill="white" stroke="none" points="-4,4 -4,-193.6 434.34,-193.6 434.34,4 -4,4"/>
<!-- uasl_reservation.migrations -->
<g id="node1" class="node">
<title>uasl_reservation.migrations</title>
<polygon fill="#efefef" stroke="none" points="46.2,-107.8 46.2,-143.4 384.14,-143.4 384.14,-107.8 46.2,-107.8"/>
<polygon fill="none" stroke="black" points="46.2,-107.8 46.2,-143.4 384.14,-143.4 384.14,-107.8 46.2,-107.8"/>
<text text-anchor="start" x="53.2" y="-121.2" font-family="Arial Bold" font-size="18.00">uasl_reservation.migrations</text>
<text text-anchor="start" x="252.65" y="-121.2" font-family="Arial" font-size="14.00">    </text>
<text text-anchor="start" x="283.77" y="-121.2" font-family="Arial" font-size="14.00" fill="#666666">[BASE TABLE]</text>
<polygon fill="none" stroke="black" points="46.2,-77 46.2,-107.8 384.14,-107.8 384.14,-77 46.2,-77"/>
<text text-anchor="start" x="53.2" y="-89.2" font-family="Arial" font-size="14.00">id </text>
<text text-anchor="start" x="67.99" y="-89.2" font-family="Arial" font-size="14.00" fill="#666666">[text]</text>
<polygon fill="none" stroke="black" points="46.2,-46.2 46.2,-77 384.14,-77 384.14,-46.2 46.2,-46.2"/>
<text text-anchor="start" x="53.2" y="-58.4" font-family="Arial" font-size="14.00">applied_at </text>
<text text-anchor="start" x="121.7" y="-58.4" font-family="Arial" font-size="14.00" fill="#666666">[timestamp with time zone]</text>
<polygon fill="none" stroke="black" stroke-width="3" points="44.7,-44.7 44.7,-144.9 385.64,-144.9 385.64,-44.7 44.7,-44.7"/>
</g>
</g>
</svg>
