<?xml version="1.0" encoding="UTF-8" standalone="no"?>
<!DOCTYPE svg PUBLIC "-//W3C//DTD SVG 1.1//EN"
 "http://www.w3.org/Graphics/SVG/1.1/DTD/svg11.dtd">
<!-- Generated by graphviz version 12.1.2 (20240928.0832)
 -->
<!-- Title: uasl_reservation.uasl_reservations Pages: 1 -->
<svg width="1015pt" height="1355pt"
 viewBox="0.00 0.00 1014.65 1355.36" xmlns="http://www.w3.org/2000/svg" xmlns:xlink="http://www.w3.org/1999/xlink">
<g id="graph0" class="graph" transform="scale(1 1) rotate(0) translate(4 1351.36)">
<title>uasl_reservation.uasl_reservations</title>
<polygon fill="white" stroke="none" points="-4,4 -4,-1351.36 1010.65,-1351.36 1010.65,4 -4,4"/>
<!-- uasl_reservation.uasl_reservations -->
<g id="node1" class="node">
<title>uasl_reservation.uasl_reservations</title>
<polygon fill="#efefef" stroke="none" points="261.72,-992.56 261.72,-1028.16 647.63,-1028.16 647.63,-992.56 261.72,-992.56"/>
<polygon fill="none" stroke="black" points="261.72,-992.56 261.72,-1028.16 647.63,-1028.16 647.63,-992.56 261.72,-992.56"/>
<text text-anchor="start" x="268.72" y="-1005.96" font-family="Arial Bold" font-size="18.00">uasl_reservation.uasl_reservations</text>
<text text-anchor="start" x="516.14" y="-1005.96" font-family="Arial" font-size="14.00">    </text>
<text text-anchor="start" x="547.25" y="-1005.96" font-family="Arial" font-size="14.00" fill="#666666">[BASE TABLE]</text>
<polygon fill="none" stroke="black" points="261.72,-961.76 261.72,-992.56 647.63,-992.56 647.63,-961.76 261.72,-961.76"/>
<text text-anchor="start" x="268.72" y="-973.96" font-family="Arial" font-size="14.00">id </text>
<text text-anchor="start" x="283.5" y="-973.96" font-family="Arial" font-size="14.00" fill="#666666">[uuid]</text>
<polygon fill="none" stroke="black" points="261.72,-930.96 261.72,-961.76 647.63,-961.76 647.63,-930.96 261.72,-930.96"/>
<text text-anchor="start" x="268.72" y="-943.16" font-family="Arial" font-size="14.00">parent_uasl_reservation_id </text>
<text text-anchor="start" x="441.49" y="-943.16" font-family="Arial" font-size="14.00" fill="#666666">[uuid]</text>
<polygon fill="none" stroke="black" points="261.72,-900.16 261.72,-930.96 647.63,-930.96 647.63,-900.16 261.72,-900.16"/>
<text text-anchor="start" x="268.72" y="-912.36" font-family="Arial" font-size="14.00">request_id </text>
<text text-anchor="start" x="337.98" y="-912.36" font-family="Arial" font-size="14.00" fill="#666666">[uuid]</text>
<polygon fill="none" stroke="black" points="261.72,-869.36 261.72,-900.16 647.63,-900.16 647.63,-869.36 261.72,-869.36"/>
<text text-anchor="start" x="268.72" y="-881.56" font-family="Arial" font-size="14.00">ex_uasl_section_id </text>
<text text-anchor="start" x="391.69" y="-881.56" font-family="Arial" font-size="14.00" fill="#666666">[varchar(255)]</text>
<polygon fill="none" stroke="black" points="261.72,-838.56 261.72,-869.36 647.63,-869.36 647.63,-838.56 261.72,-838.56"/>
<text text-anchor="start" x="268.72" y="-850.76" font-family="Arial" font-size="14.00">ex_uasl_id </text>
<text text-anchor="start" x="339.54" y="-850.76" font-family="Arial" font-size="14.00" fill="#666666">[varchar(255)]</text>
<polygon fill="none" stroke="black" points="261.72,-807.76 261.72,-838.56 647.63,-838.56 647.63,-807.76 261.72,-807.76"/>
<text text-anchor="start" x="268.72" y="-819.96" font-family="Arial" font-size="14.00">ex_administrator_id </text>
<text text-anchor="start" x="394.78" y="-819.96" font-family="Arial" font-size="14.00" fill="#666666">[varchar(255)]</text>
<polygon fill="none" stroke="black" points="261.72,-776.96 261.72,-807.76 647.63,-807.76 647.63,-776.96 261.72,-776.96"/>
<text text-anchor="start" x="268.72" y="-789.16" font-family="Arial" font-size="14.00">start_at </text>
<text text-anchor="start" x="319.3" y="-789.16" font-family="Arial" font-size="14.00" fill="#666666">[timestamp(0) with time zone]</text>
<polygon fill="none" stroke="black" points="261.72,-746.16 261.72,-776.96 647.63,-776.96 647.63,-746.16 261.72,-746.16"/>
<text text-anchor="start" x="268.72" y="-758.36" font-family="Arial" font-size="14.00">end_at </text>
<text text-anchor="start" x="315.43" y="-758.36" font-family="Arial" font-size="14.00" fill="#666666">[timestamp(0) with time zone]</text>
<polygon fill="none" stroke="black" points="261.72,-715.36 261.72,-746.16 647.63,-746.16 647.63,-715.36 261.72,-715.36"/>
<text text-anchor="start" x="268.72" y="-727.56" font-family="Arial" font-size="14.00">accepted_at </text>
<text text-anchor="start" x="348.89" y="-727.56" font-family="Arial" font-size="14.00" fill="#666666">[timestamp(0) with time zone]</text>
<polygon fill="none" stroke="black" points="261.72,-684.56 261.72,-715.36 647.63,-715.36 647.63,-684.56 261.72,-684.56"/>
<text text-anchor="start" x="268.72" y="-696.76" font-family="Arial" font-size="14.00">airspace_id </text>
<text text-anchor="start" x="344.21" y="-696.76" font-family="Arial" font-size="14.00" fill="#666666">[uuid]</text>
<polygon fill="none" stroke="black" points="261.72,-653.76 261.72,-684.56 647.63,-684.56 647.63,-653.76 261.72,-653.76"/>
<text text-anchor="start" x="268.72" y="-665.96" font-family="Arial" font-size="14.00">ex_reserved_by </text>
<text text-anchor="start" x="372.22" y="-665.96" font-family="Arial" font-size="14.00" fill="#666666">[uuid]</text>
<polygon fill="none" stroke="black" points="261.72,-622.96 261.72,-653.76 647.63,-653.76 647.63,-622.96 261.72,-622.96"/>
<text text-anchor="start" x="268.72" y="-635.16" font-family="Arial" font-size="14.00">organization_id </text>
<text text-anchor="start" x="367.56" y="-635.16" font-family="Arial" font-size="14.00" fill="#666666">[uuid]</text>
<polygon fill="none" stroke="black" points="261.72,-592.16 261.72,-622.96 647.63,-622.96 647.63,-592.16 261.72,-592.16"/>
<text text-anchor="start" x="268.72" y="-604.36" font-family="Arial" font-size="14.00">project_id </text>
<text text-anchor="start" x="333.31" y="-604.36" font-family="Arial" font-size="14.00" fill="#666666">[uuid]</text>
<polygon fill="none" stroke="black" points="261.72,-561.36 261.72,-592.16 647.63,-592.16 647.63,-561.36 261.72,-561.36"/>
<text text-anchor="start" x="268.72" y="-573.56" font-family="Arial" font-size="14.00">operation_id </text>
<text text-anchor="start" x="349.67" y="-573.56" font-family="Arial" font-size="14.00" fill="#666666">[uuid]</text>
<polygon fill="none" stroke="black" points="261.72,-530.56 261.72,-561.36 647.63,-561.36 647.63,-530.56 261.72,-530.56"/>
<text text-anchor="start" x="268.72" y="-542.76" font-family="Arial" font-size="14.00">status </text>
<text text-anchor="start" x="309.96" y="-542.76" font-family="Arial" font-size="14.00" fill="#666666">[uasl_reservation.reservation_status]</text>
<polygon fill="none" stroke="black" points="261.72,-499.76 261.72,-530.56 647.63,-530.56 647.63,-499.76 261.72,-499.76"/>
<text text-anchor="start" x="268.72" y="-511.96" font-family="Arial" font-size="14.00">pricing_rule_version </text>
<text text-anchor="start" x="397.89" y="-511.96" font-family="Arial" font-size="14.00" fill="#666666">[integer]</text>
<polygon fill="none" stroke="black" points="261.72,-468.96 261.72,-499.76 647.63,-499.76 647.63,-468.96 261.72,-468.96"/>
<text text-anchor="start" x="268.72" y="-481.16" font-family="Arial" font-size="14.00">amount </text>
<text text-anchor="start" x="319.3" y="-481.16" font-family="Arial" font-size="14.00" fill="#666666">[integer]</text>
<polygon fill="none" stroke="black" points="261.72,-438.16 261.72,-468.96 647.63,-468.96 647.63,-438.16 261.72,-438.16"/>
<text text-anchor="start" x="268.72" y="-450.36" font-family="Arial" font-size="14.00">estimated_at </text>
<text text-anchor="start" x="352.76" y="-450.36" font-family="Arial" font-size="14.00" fill="#666666">[timestamp(0) with time zone]</text>
<polygon fill="none" stroke="black" points="261.72,-407.36 261.72,-438.16 647.63,-438.16 647.63,-407.36 261.72,-407.36"/>
<text text-anchor="start" x="268.72" y="-419.56" font-family="Arial" font-size="14.00">fixed_at </text>
<text text-anchor="start" x="321.64" y="-419.56" font-family="Arial" font-size="14.00" fill="#666666">[timestamp(0) with time zone]</text>
<polygon fill="none" stroke="black" points="261.72,-376.56 261.72,-407.36 647.63,-407.36 647.63,-376.56 261.72,-376.56"/>
<text text-anchor="start" x="268.72" y="-388.76" font-family="Arial" font-size="14.00">sequence </text>
<text text-anchor="start" x="333.32" y="-388.76" font-family="Arial" font-size="14.00" fill="#666666">[integer]</text>
<polygon fill="none" stroke="black" points="261.72,-345.76 261.72,-376.56 647.63,-376.56 647.63,-345.76 261.72,-345.76"/>
<text text-anchor="start" x="268.72" y="-357.96" font-family="Arial" font-size="14.00">conformity_assessment </text>
<text text-anchor="start" x="419.66" y="-357.96" font-family="Arial" font-size="14.00" fill="#666666">[jsonb]</text>
<polygon fill="none" stroke="black" points="261.72,-314.96 261.72,-345.76 647.63,-345.76 647.63,-314.96 261.72,-314.96"/>
<text text-anchor="start" x="268.72" y="-327.16" font-family="Arial" font-size="14.00">destination_reservations </text>
<text text-anchor="start" x="424.36" y="-327.16" font-family="Arial" font-size="14.00" fill="#666666">[jsonb]</text>
<polygon fill="none" stroke="black" points="261.72,-284.16 261.72,-314.96 647.63,-314.96 647.63,-284.16 261.72,-284.16"/>
<text text-anchor="start" x="268.72" y="-296.36" font-family="Arial" font-size="14.00">created_at </text>
<text text-anchor="start" x="338.76" y="-296.36" font-family="Arial" font-size="14.00" fill="#666666">[timestamp(0) with time zone]</text>
<polygon fill="none" stroke="black" points="261.72,-253.36 261.72,-284.16 647.63,-284.16 647.63,-253.36 261.72,-253.36"/>
<text text-anchor="start" x="268.72" y="-265.56" font-family="Arial" font-size="14.00">updated_at </text>
<text text-anchor="start" x="342.67" y="-265.56" font-family="Arial" font-size="14.00" fill="#666666">[timestamp(0) with time zone]</text>
<polygon fill="none" stroke="black" stroke-width="3" points="260.22,-251.86 260.22,-1029.66 649.13,-1029.66 649.13,-251.86 260.22,-251.86"/>
</g>
<!-- uasl_reservation.uasl_reservations&#45;&gt;uasl_reservation.uasl_reservations -->
<g id="edge1" class="edge">
<title>uasl_reservation.uasl_reservations:parent_uasl_reservation_id&#45;&gt;uasl_reservation.uasl_reservations:id</title>
<path fill="none" stroke="black" d="M455.69,-971.91C463.66,-1179.34 463.32,-1347.36 454.67,-1347.36 445.91,-1347.36 445.68,-1175 453.97,-992.3"/>
<polygon fill="black" stroke="black" points="455.69,-972.02 459.8,-961.85 455.48,-966.69 455.32,-962.36 455.32,-962.36 455.32,-962.36 455.48,-966.69 450.81,-962.2 455.69,-972.02"/>
<text text-anchor="start" x="7" y="-971.69" font-family="Arial" font-size="10.00">FOREIGN KEY (parent_uasl_reservation_id) REFERENCES uasl_reservation.uasl_reservations(id)</text>
</g>
<!-- uasl_reservation.operations -->
<g id="node2" class="node">
<title>uasl_reservation.operations</title>
<polygon fill="#efefef" stroke="none" points="286.71,-92.36 286.71,-127.96 622.63,-127.96 622.63,-92.36 286.71,-92.36"/>
<polygon fill="none" stroke="black" points="286.71,-92.36 286.71,-127.96 622.63,-127.96 622.63,-92.36 286.71,-92.36"/>
<text text-anchor="start" x="293.71" y="-105.76" font-family="Arial Bold" font-size="18.00">uasl_reservation.operations</text>
<text text-anchor="start" x="491.15" y="-105.76" font-family="Arial" font-size="14.00">    </text>
<text text-anchor="start" x="522.26" y="-105.76" font-family="Arial" font-size="14.00" fill="#666666">[BASE TABLE]</text>
<polygon fill="none" stroke="black" points="286.71,-61.56 286.71,-92.36 622.63,-92.36 622.63,-61.56 286.71,-61.56"/>
<text text-anchor="start" x="293.71" y="-73.76" font-family="Arial" font-size="14.00">id </text>
<text text-anchor="start" x="308.49" y="-73.76" font-family="Arial" font-size="14.00" fill="#666666">[uuid]</text>
</g>
<!-- uasl_reservation.uasl_reservations&#45;&gt;uasl_reservation.operations -->
<g id="edge2" class="edge">
<title>uasl_reservation.uasl_reservations:operation_id&#45;&gt;uasl_reservation.operations:id</title>
<path fill="none" stroke="black" d="M657.81,-572.35C705.81,-524.38 703.95,-99.85 665.83,-61.56 599.63,4.96 454.67,33.3 454.67,-60.56"/>
<polygon fill="black" stroke="black" points="657.95,-572.29 646.98,-572.55 653.14,-574.6 649.23,-576.47 649.23,-576.47 649.23,-576.47 653.14,-574.6 650.87,-580.67 657.95,-572.29"/>
<text text-anchor="start" x="655.63" y="-586.76" font-family="Arial" font-size="10.00">FOREIGN KEY (operation_id) REFERENCES uasl_reservation.operations(id)</text>
</g>
</g>
</svg>
