<?xml version="1.0" encoding="UTF-8" standalone="no"?>
<!DOCTYPE svg PUBLIC "-//W3C//DTD SVG 1.1//EN"
 "http://www.w3.org/Graphics/SVG/1.1/DTD/svg11.dtd">
<!-- Generated by graphviz version 12.1.2 (20240928.0832)
 -->
<!-- Title: uasl_reservation.external_uasl_resources Pages: 1 -->
<svg width="534pt" height="475pt"
 viewBox="0.00 0.00 534.27 474.80" xmlns="http://www.w3.org/2000/svg" xmlns:xlink="http://www.w3.org/1999/xlink">
<g id="graph0" class="graph" transform="scale(1 1) rotate(0) translate(4 470.8)">
<title>uasl_reservation.external_uasl_resources</title>
<polygon fill="white" stroke="none" points="-4,4 -4,-470.8 530.27,-470.8 530.27,4 -4,4"/>
<!-- uasl_reservation.external_uasl_resources -->
<g id="node1" class="node">
<title>uasl_reservation.external_uasl_resources</title>
<polygon fill="#efefef" stroke="none" points="46.2,-385 46.2,-420.6 480.07,-420.6 480.07,-385 46.2,-385"/>
<polygon fill="none" stroke="black" points="46.2,-385 46.2,-420.6 480.07,-420.6 480.07,-385 46.2,-385"/>
<text text-anchor="start" x="53.2" y="-398.4" font-family="Arial Bold" font-size="18.00">uasl_reservation.external_uasl_resources</text>
<text text-anchor="start" x="348.58" y="-398.4" font-family="Arial" font-size="14.00">    </text>
<text text-anchor="start" x="379.7" y="-398.4" font-family="Arial" font-size="14.00" fill="#666666">[BASE TABLE]</text>
<polygon fill="none" stroke="black" points="46.2,-354.2 46.2,-385 480.07,-385 480.07,-354.2 46.2,-354.2"/>
<text text-anchor="start" x="53.2" y="-366.4" font-family="Arial" font-size="14.00">id </text>
<text text-anchor="start" x="67.99" y="-366.4" font-family="Arial" font-size="14.00" fill="#666666">[uuid]</text>
<polygon fill="none" stroke="black" points="46.2,-323.4 46.2,-354.2 480.07,-354.2 480.07,-323.4 46.2,-323.4"/>
<text text-anchor="start" x="53.2" y="-335.6" font-family="Arial" font-size="14.00">name </text>
<text text-anchor="start" x="92.11" y="-335.6" font-family="Arial" font-size="14.00" fill="#666666">[varchar(255)]</text>
<polygon fill="none" stroke="black" points="46.2,-292.6 46.2,-323.4 480.07,-323.4 480.07,-292.6 46.2,-292.6"/>
<text text-anchor="start" x="53.2" y="-304.8" font-family="Arial" font-size="14.00">resource_id </text>
<text text-anchor="start" x="130.24" y="-304.8" font-family="Arial" font-size="14.00" fill="#666666">[uuid]</text>
<polygon fill="none" stroke="black" points="46.2,-261.8 46.2,-292.6 480.07,-292.6 480.07,-261.8 46.2,-261.8"/>
<text text-anchor="start" x="53.2" y="-274" font-family="Arial" font-size="14.00">ex_uasl_section_id </text>
<text text-anchor="start" x="176.17" y="-274" font-family="Arial" font-size="14.00" fill="#666666">[varchar(255)]</text>
<polygon fill="none" stroke="black" points="46.2,-231 46.2,-261.8 480.07,-261.8 480.07,-231 46.2,-231"/>
<text text-anchor="start" x="53.2" y="-243.2" font-family="Arial" font-size="14.00">resource_type </text>
<text text-anchor="start" x="145.81" y="-243.2" font-family="Arial" font-size="14.00" fill="#666666">[uasl_reservation.uasl_resource_type]</text>
<polygon fill="none" stroke="black" points="46.2,-200.2 46.2,-231 480.07,-231 480.07,-200.2 46.2,-200.2"/>
<text text-anchor="start" x="53.2" y="-212.4" font-family="Arial" font-size="14.00">ex_resource_id </text>
<text text-anchor="start" x="152.81" y="-212.4" font-family="Arial" font-size="14.00" fill="#666666">[varchar(255)]</text>
<polygon fill="none" stroke="black" points="46.2,-169.4 46.2,-200.2 480.07,-200.2 480.07,-169.4 46.2,-169.4"/>
<text text-anchor="start" x="53.2" y="-181.6" font-family="Arial" font-size="14.00">organization_id </text>
<text text-anchor="start" x="152.05" y="-181.6" font-family="Arial" font-size="14.00" fill="#666666">[uuid]</text>
<polygon fill="none" stroke="black" points="46.2,-138.6 46.2,-169.4 480.07,-169.4 480.07,-138.6 46.2,-138.6"/>
<text text-anchor="start" x="53.2" y="-150.8" font-family="Arial" font-size="14.00">estimated_price_per_minute </text>
<text text-anchor="start" x="233.74" y="-150.8" font-family="Arial" font-size="14.00" fill="#666666">[jsonb]</text>
<polygon fill="none" stroke="black" points="46.2,-107.8 46.2,-138.6 480.07,-138.6 480.07,-107.8 46.2,-107.8"/>
<text text-anchor="start" x="53.2" y="-120" font-family="Arial" font-size="14.00">aircraft_info </text>
<text text-anchor="start" x="130.23" y="-120" font-family="Arial" font-size="14.00" fill="#666666">[jsonb]</text>
<polygon fill="none" stroke="black" points="46.2,-77 46.2,-107.8 480.07,-107.8 480.07,-77 46.2,-77"/>
<text text-anchor="start" x="53.2" y="-89.2" font-family="Arial" font-size="14.00">created_at </text>
<text text-anchor="start" x="123.25" y="-89.2" font-family="Arial" font-size="14.00" fill="#666666">[timestamp(0) with time zone]</text>
<polygon fill="none" stroke="black" points="46.2,-46.2 46.2,-77 480.07,-77 480.07,-46.2 46.2,-46.2"/>
<text text-anchor="start" x="53.2" y="-58.4" font-family="Arial" font-size="14.00">updated_at </text>
<text text-anchor="start" x="127.16" y="-58.4" font-family="Arial" font-size="14.00" fill="#666666">[timestamp(0) with time zone]</text>
<polygon fill="none" stroke="black" stroke-width="3" points="44.7,-44.7 44.7,-422.1 481.57,-422.1 481.57,-44.7 44.7,-44.7"/>
</g>
</g>
</svg>
