<?xml version="1.0" encoding="UTF-8" standalone="no"?>
<!DOCTYPE svg PUBLIC "-//W3C//DTD SVG 1.1//EN"
 "http://www.w3.org/Graphics/SVG/1.1/DTD/svg11.dtd">
<!-- Generated by graphviz version 12.1.2 (20240928.0832)
 -->
<!-- Title: uasl_reservation.uasl_administrators Pages: 1 -->
<svg width="1130pt" height="972pt"
 viewBox="0.00 0.00 1130.05 971.60" xmlns="http://www.w3.org/2000/svg" xmlns:xlink="http://www.w3.org/1999/xlink">
<g id="graph0" class="graph" transform="scale(1 1) rotate(0) translate(4 967.6)">
<title>uasl_reservation.uasl_administrators</title>
<polygon fill="white" stroke="none" points="-4,4 -4,-967.6 1126.05,-967.6 1126.05,4 -4,4"/>
<!-- uasl_reservation.uasl_administrators -->
<g id="node1" class="node">
<title>uasl_reservation.uasl_administrators</title>
<polygon fill="#efefef" stroke="none" points="344.32,-292.6 344.32,-328.2 746.25,-328.2 746.25,-292.6 344.32,-292.6"/>
<polygon fill="none" stroke="black" points="344.32,-292.6 344.32,-328.2 746.25,-328.2 746.25,-292.6 344.32,-292.6"/>
<text text-anchor="start" x="351.32" y="-306" font-family="Arial Bold" font-size="18.00">uasl_reservation.uasl_administrators</text>
<text text-anchor="start" x="614.76" y="-306" font-family="Arial" font-size="14.00">    </text>
<text text-anchor="start" x="645.87" y="-306" font-family="Arial" font-size="14.00" fill="#666666">[BASE TABLE]</text>
<polygon fill="none" stroke="black" points="344.32,-261.8 344.32,-292.6 746.25,-292.6 746.25,-261.8 344.32,-261.8"/>
<text text-anchor="start" x="351.32" y="-274" font-family="Arial" font-size="14.00">id </text>
<text text-anchor="start" x="366.11" y="-274" font-family="Arial" font-size="14.00" fill="#666666">[uuid]</text>
<polygon fill="none" stroke="black" points="344.32,-231 344.32,-261.8 746.25,-261.8 746.25,-231 344.32,-231"/>
<text text-anchor="start" x="351.32" y="-243.2" font-family="Arial" font-size="14.00">ex_administrator_id </text>
<text text-anchor="start" x="477.38" y="-243.2" font-family="Arial" font-size="14.00" fill="#666666">[varchar(255)]</text>
<polygon fill="none" stroke="black" points="344.32,-200.2 344.32,-231 746.25,-231 746.25,-200.2 344.32,-200.2"/>
<text text-anchor="start" x="351.32" y="-212.4" font-family="Arial" font-size="14.00">business_number </text>
<text text-anchor="start" x="465.72" y="-212.4" font-family="Arial" font-size="14.00" fill="#666666">[varchar(255)]</text>
<polygon fill="none" stroke="black" points="344.32,-169.4 344.32,-200.2 746.25,-200.2 746.25,-169.4 344.32,-169.4"/>
<text text-anchor="start" x="351.32" y="-181.6" font-family="Arial" font-size="14.00">name </text>
<text text-anchor="start" x="390.23" y="-181.6" font-family="Arial" font-size="14.00" fill="#666666">[varchar(255)]</text>
<polygon fill="none" stroke="black" points="344.32,-138.6 344.32,-169.4 746.25,-169.4 746.25,-138.6 344.32,-138.6"/>
<text text-anchor="start" x="351.32" y="-150.8" font-family="Arial" font-size="14.00">is_internal </text>
<text text-anchor="start" x="419.02" y="-150.8" font-family="Arial" font-size="14.00" fill="#666666">[boolean]</text>
<polygon fill="none" stroke="black" points="344.32,-107.8 344.32,-138.6 746.25,-138.6 746.25,-107.8 344.32,-107.8"/>
<text text-anchor="start" x="351.32" y="-120" font-family="Arial" font-size="14.00">external_services </text>
<text text-anchor="start" x="464.15" y="-120" font-family="Arial" font-size="14.00" fill="#666666">[jsonb]</text>
<polygon fill="none" stroke="black" points="344.32,-77 344.32,-107.8 746.25,-107.8 746.25,-77 344.32,-77"/>
<text text-anchor="start" x="351.32" y="-89.2" font-family="Arial" font-size="14.00">created_at </text>
<text text-anchor="start" x="421.37" y="-89.2" font-family="Arial" font-size="14.00" fill="#666666">[timestamp(0) with time zone]</text>
<polygon fill="none" stroke="black" points="344.32,-46.2 344.32,-77 746.25,-77 746.25,-46.2 344.32,-46.2"/>
<text text-anchor="start" x="351.32" y="-58.4" font-family="Arial" font-size="14.00">updated_at </text>
<text text-anchor="start" x="425.28" y="-58.4" font-family="Arial" font-size="14.00" fill="#666666">[timestamp(0) with time zone]</text>
<polygon fill="none" stroke="black" stroke-width="3" points="342.82,-44.7 342.82,-329.7 747.75,-329.7 747.75,-44.7 342.82,-44.7"/>
</g>
<!-- uasl_reservation.external_uasl_definitions -->
<g id="node2" class="node">
<title>uasl_reservation.external_uasl_definitions</title>
<polygon fill="#efefef" stroke="none" points="65.83,-869.4 65.83,-905 508.73,-905 508.73,-869.4 65.83,-869.4"/>
<polygon fill="none" stroke="black" points="65.83,-869.4 65.83,-905 508.73,-905 508.73,-869.4 65.83,-869.4"/>
<text text-anchor="start" x="72.83" y="-882.8" font-family="Arial Bold" font-size="18.00">uasl_reservation.external_uasl_definitions</text>
<text text-anchor="start" x="377.24" y="-882.8" font-family="Arial" font-size="14.00">    </text>
<text text-anchor="start" x="408.36" y="-882.8" font-family="Arial" font-size="14.00" fill="#666666">[BASE TABLE]</text>
<polygon fill="none" stroke="black" points="65.83,-838.6 65.83,-869.4 508.73,-869.4 508.73,-838.6 65.83,-838.6"/>
<text text-anchor="start" x="72.83" y="-850.8" font-family="Arial" font-size="14.00">id </text>
<text text-anchor="start" x="87.62" y="-850.8" font-family="Arial" font-size="14.00" fill="#666666">[uuid]</text>
<polygon fill="none" stroke="black" points="65.83,-807.8 65.83,-838.6 508.73,-838.6 508.73,-807.8 65.83,-807.8"/>
<text text-anchor="start" x="72.83" y="-820" font-family="Arial" font-size="14.00">ex_uasl_section_id </text>
<text text-anchor="start" x="195.81" y="-820" font-family="Arial" font-size="14.00" fill="#666666">[varchar(255)]</text>
<polygon fill="none" stroke="black" points="65.83,-777 65.83,-807.8 508.73,-807.8 508.73,-777 65.83,-777"/>
<text text-anchor="start" x="72.83" y="-789.2" font-family="Arial" font-size="14.00">ex_uasl_id </text>
<text text-anchor="start" x="143.66" y="-789.2" font-family="Arial" font-size="14.00" fill="#666666">[varchar(255)]</text>
<polygon fill="none" stroke="black" points="65.83,-746.2 65.83,-777 508.73,-777 508.73,-746.2 65.83,-746.2"/>
<text text-anchor="start" x="72.83" y="-758.4" font-family="Arial" font-size="14.00">ex_administrator_id </text>
<text text-anchor="start" x="198.9" y="-758.4" font-family="Arial" font-size="14.00" fill="#666666">[varchar(255)]</text>
<polygon fill="none" stroke="black" points="65.83,-715.4 65.83,-746.2 508.73,-746.2 508.73,-715.4 65.83,-715.4"/>
<text text-anchor="start" x="72.83" y="-727.6" font-family="Arial" font-size="14.00">geometry </text>
<text text-anchor="start" x="135.08" y="-727.6" font-family="Arial" font-size="14.00" fill="#666666">[geometry]</text>
<polygon fill="none" stroke="black" points="65.83,-684.6 65.83,-715.4 508.73,-715.4 508.73,-684.6 65.83,-684.6"/>
<text text-anchor="start" x="72.83" y="-696.8" font-family="Arial" font-size="14.00">point_ids </text>
<text text-anchor="start" x="132.76" y="-696.8" font-family="Arial" font-size="14.00" fill="#666666">[text[]]</text>
<polygon fill="none" stroke="black" points="65.83,-653.8 65.83,-684.6 508.73,-684.6 508.73,-653.8 65.83,-653.8"/>
<text text-anchor="start" x="72.83" y="-666" font-family="Arial" font-size="14.00">flight_purpose </text>
<text text-anchor="start" x="164.67" y="-666" font-family="Arial" font-size="14.00" fill="#666666">[varchar(255)]</text>
<polygon fill="none" stroke="black" points="65.83,-623 65.83,-653.8 508.73,-653.8 508.73,-623 65.83,-623"/>
<text text-anchor="start" x="72.83" y="-635.2" font-family="Arial" font-size="14.00">price_info </text>
<text text-anchor="start" x="137.43" y="-635.2" font-family="Arial" font-size="14.00" fill="#666666">[jsonb]</text>
<polygon fill="none" stroke="black" points="65.83,-592.2 65.83,-623 508.73,-623 508.73,-592.2 65.83,-592.2"/>
<text text-anchor="start" x="72.83" y="-604.4" font-family="Arial" font-size="14.00">price_timezone </text>
<text text-anchor="start" x="171.66" y="-604.4" font-family="Arial" font-size="14.00" fill="#666666">[varchar(50)]</text>
<polygon fill="none" stroke="black" points="65.83,-561.4 65.83,-592.2 508.73,-592.2 508.73,-561.4 65.83,-561.4"/>
<text text-anchor="start" x="72.83" y="-573.6" font-family="Arial" font-size="14.00">price_version </text>
<text text-anchor="start" x="159.99" y="-573.6" font-family="Arial" font-size="14.00" fill="#666666">[integer]</text>
<polygon fill="none" stroke="black" points="65.83,-530.6 65.83,-561.4 508.73,-561.4 508.73,-530.6 65.83,-530.6"/>
<text text-anchor="start" x="72.83" y="-542.8" font-family="Arial" font-size="14.00">status </text>
<text text-anchor="start" x="114.08" y="-542.8" font-family="Arial" font-size="14.00" fill="#666666">[uasl_reservation.uasl_section_status]</text>
<polygon fill="none" stroke="black" points="65.83,-499.8 65.83,-530.6 508.73,-530.6 508.73,-499.8 65.83,-499.8"/>
<text text-anchor="start" x="72.83" y="-512" font-family="Arial" font-size="14.00">created_at </text>
<text text-anchor="start" x="142.88" y="-512" font-family="Arial" font-size="14.00" fill="#666666">[timestamp(0) with time zone]</text>
<polygon fill="none" stroke="black" points="65.83,-469 65.83,-499.8 508.73,-499.8 508.73,-469 65.83,-469"/>
<text text-anchor="start" x="72.83" y="-481.2" font-family="Arial" font-size="14.00">updated_at </text>
<text text-anchor="start" x="146.79" y="-481.2" font-family="Arial" font-size="14.00" fill="#666666">[timestamp(0) with time zone]</text>
</g>
<!-- uasl_reservation.external_uasl_definitions&#45;&gt;uasl_reservation.uasl_administrators -->
<g id="edge1" class="edge">
<title>uasl_reservation.external_uasl_definitions:ex_administrator_id&#45;&gt;uasl_reservation.uasl_administrators:ex_administrator_id</title>
<path fill="none" stroke="black" d="M519.92,-759.68C581.26,-735.19 550.86,-482.93 508.73,-425.8 463.3,-364.18 389.91,-435.91 344.32,-374.4 310.45,-328.69 286.43,-246.4 343.32,-246.4"/>
<polygon fill="black" stroke="black" points="519.89,-759.69 509.23,-757.12 514.65,-760.68 510.39,-761.48 510.39,-761.48 510.39,-761.48 514.65,-760.68 510.89,-765.96 519.89,-759.69"/>
<text text-anchor="start" x="7" y="-771.6" font-family="Arial" font-size="10.00">FOREIGN KEY (ex_administrator_id) REFERENCES uasl_reservation.uasl_administrators(ex_administrator_id)</text>
</g>
<!-- uasl_reservation.uasl_settlements -->
<g id="node3" class="node">
<title>uasl_reservation.uasl_settlements</title>
<polygon fill="#efefef" stroke="none" points="613.32,-884.8 613.32,-920.4 993.25,-920.4 993.25,-884.8 613.32,-884.8"/>
<polygon fill="none" stroke="black" points="613.32,-884.8 613.32,-920.4 993.25,-920.4 993.25,-884.8 613.32,-884.8"/>
<text text-anchor="start" x="620.32" y="-898.2" font-family="Arial Bold" font-size="18.00">uasl_reservation.uasl_settlements</text>
<text text-anchor="start" x="861.76" y="-898.2" font-family="Arial" font-size="14.00">    </text>
<text text-anchor="start" x="892.87" y="-898.2" font-family="Arial" font-size="14.00" fill="#666666">[BASE TABLE]</text>
<polygon fill="none" stroke="black" points="613.32,-854 613.32,-884.8 993.25,-884.8 993.25,-854 613.32,-854"/>
<text text-anchor="start" x="620.32" y="-866.2" font-family="Arial" font-size="14.00">id </text>
<text text-anchor="start" x="635.11" y="-866.2" font-family="Arial" font-size="14.00" fill="#666666">[uuid]</text>
<polygon fill="none" stroke="black" points="613.32,-823.2 613.32,-854 993.25,-854 993.25,-823.2 613.32,-823.2"/>
<text text-anchor="start" x="620.32" y="-835.4" font-family="Arial" font-size="14.00">ex_administrator_id </text>
<text text-anchor="start" x="746.38" y="-835.4" font-family="Arial" font-size="14.00" fill="#666666">[varchar(255)]</text>
<polygon fill="none" stroke="black" points="613.32,-792.4 613.32,-823.2 993.25,-823.2 993.25,-792.4 613.32,-792.4"/>
<text text-anchor="start" x="620.32" y="-804.6" font-family="Arial" font-size="14.00">operator_id </text>
<text text-anchor="start" x="695.04" y="-804.6" font-family="Arial" font-size="14.00" fill="#666666">[uuid]</text>
<polygon fill="none" stroke="black" points="613.32,-761.6 613.32,-792.4 993.25,-792.4 993.25,-761.6 613.32,-761.6"/>
<text text-anchor="start" x="620.32" y="-773.8" font-family="Arial" font-size="14.00">target_year_month </text>
<text text-anchor="start" x="741.73" y="-773.8" font-family="Arial" font-size="14.00" fill="#666666">[date]</text>
<polygon fill="none" stroke="black" points="613.32,-730.8 613.32,-761.6 993.25,-761.6 993.25,-730.8 613.32,-730.8"/>
<text text-anchor="start" x="620.32" y="-743" font-family="Arial" font-size="14.00">uasl_reservation_ids </text>
<text text-anchor="start" x="752.62" y="-743" font-family="Arial" font-size="14.00" fill="#666666">[uuid[]]</text>
<polygon fill="none" stroke="black" points="613.32,-700 613.32,-730.8 993.25,-730.8 993.25,-700 613.32,-700"/>
<text text-anchor="start" x="620.32" y="-712.2" font-family="Arial" font-size="14.00">total_amount </text>
<text text-anchor="start" x="705.15" y="-712.2" font-family="Arial" font-size="14.00" fill="#666666">[integer]</text>
<polygon fill="none" stroke="black" points="613.32,-669.2 613.32,-700 993.25,-700 993.25,-669.2 613.32,-669.2"/>
<text text-anchor="start" x="620.32" y="-681.4" font-family="Arial" font-size="14.00">tax_rate </text>
<text text-anchor="start" x="674.8" y="-681.4" font-family="Arial" font-size="14.00" fill="#666666">[numeric(5,4)]</text>
<polygon fill="none" stroke="black" points="613.32,-638.4 613.32,-669.2 993.25,-669.2 993.25,-638.4 613.32,-638.4"/>
<text text-anchor="start" x="620.32" y="-650.6" font-family="Arial" font-size="14.00">payment_confirmed_at </text>
<text text-anchor="start" x="766.62" y="-650.6" font-family="Arial" font-size="14.00" fill="#666666">[timestamp(0) with time zone]</text>
<polygon fill="none" stroke="black" points="613.32,-607.6 613.32,-638.4 993.25,-638.4 993.25,-607.6 613.32,-607.6"/>
<text text-anchor="start" x="620.32" y="-619.8" font-family="Arial" font-size="14.00">submitted_at </text>
<text text-anchor="start" x="704.37" y="-619.8" font-family="Arial" font-size="14.00" fill="#666666">[timestamp(0) with time zone]</text>
<polygon fill="none" stroke="black" points="613.32,-576.8 613.32,-607.6 993.25,-607.6 993.25,-576.8 613.32,-576.8"/>
<text text-anchor="start" x="620.32" y="-589" font-family="Arial" font-size="14.00">billed_at </text>
<text text-anchor="start" x="676.36" y="-589" font-family="Arial" font-size="14.00" fill="#666666">[timestamp(0) with time zone]</text>
<polygon fill="none" stroke="black" points="613.32,-546 613.32,-576.8 993.25,-576.8 993.25,-546 613.32,-546"/>
<text text-anchor="start" x="620.32" y="-558.2" font-family="Arial" font-size="14.00">payment_due_at </text>
<text text-anchor="start" x="728.51" y="-558.2" font-family="Arial" font-size="14.00" fill="#666666">[timestamp(0) with time zone]</text>
<polygon fill="none" stroke="black" points="613.32,-515.2 613.32,-546 993.25,-546 993.25,-515.2 613.32,-515.2"/>
<text text-anchor="start" x="620.32" y="-527.4" font-family="Arial" font-size="14.00">paid_at </text>
<text text-anchor="start" x="670.14" y="-527.4" font-family="Arial" font-size="14.00" fill="#666666">[timestamp(0) with time zone]</text>
<polygon fill="none" stroke="black" points="613.32,-484.4 613.32,-515.2 993.25,-515.2 993.25,-484.4 613.32,-484.4"/>
<text text-anchor="start" x="620.32" y="-496.6" font-family="Arial" font-size="14.00">created_at </text>
<text text-anchor="start" x="690.37" y="-496.6" font-family="Arial" font-size="14.00" fill="#666666">[timestamp(0) with time zone]</text>
<polygon fill="none" stroke="black" points="613.32,-453.6 613.32,-484.4 993.25,-484.4 993.25,-453.6 613.32,-453.6"/>
<text text-anchor="start" x="620.32" y="-465.8" font-family="Arial" font-size="14.00">updated_at </text>
<text text-anchor="start" x="694.28" y="-465.8" font-family="Arial" font-size="14.00" fill="#666666">[timestamp(0) with time zone]</text>
</g>
<!-- uasl_reservation.uasl_settlements&#45;&gt;uasl_reservation.uasl_administrators -->
<g id="edge2" class="edge">
<title>uasl_reservation.uasl_settlements:ex_administrator_id&#45;&gt;uasl_reservation.uasl_administrators:ex_administrator_id</title>
<path fill="none" stroke="black" d="M603.49,-833.36C567.47,-786.87 586.34,-445.57 613.32,-410.4 650.57,-361.84 708.86,-422.86 746.25,-374.4 780.99,-329.35 804.14,-246.4 747.25,-246.4"/>
<polygon fill="black" stroke="black" points="603.43,-833.33 609.74,-842.3 608.02,-836.05 611.75,-838.26 611.75,-838.26 611.75,-838.26 608.02,-836.05 614.33,-834.56 603.43,-833.33"/>
<text text-anchor="start" x="619.32" y="-848.6" font-family="Arial" font-size="10.00">FOREIGN KEY (ex_administrator_id) REFERENCES uasl_reservation.uasl_administrators(ex_administrator_id)</text>
</g>
</g>
</svg>
