<?xml version="1.0" encoding="UTF-8" standalone="no"?>
<!DOCTYPE svg PUBLIC "-//W3C//DTD SVG 1.1//EN"
 "http://www.w3.org/Graphics/SVG/1.1/DTD/svg11.dtd">
<!-- Generated by graphviz version 12.1.2 (20240928.0832)
 -->
<!-- Title: uasl_reservation.uasl_settlements Pages: 1 -->
<svg width="953pt" height="972pt"
 viewBox="0.00 0.00 952.86 971.60" xmlns="http://www.w3.org/2000/svg" xmlns:xlink="http://www.w3.org/1999/xlink">
<g id="graph0" class="graph" transform="scale(1 1) rotate(0) translate(4 967.6)">
<title>uasl_reservation.uasl_settlements</title>
<polygon fill="white" stroke="none" points="-4,4 -4,-967.6 948.86,-967.6 948.86,4 -4,4"/>
<!-- uasl_reservation.uasl_settlements -->
<g id="node1" class="node">
<title>uasl_reservation.uasl_settlements</title>
<polygon fill="#efefef" stroke="none" points="54.2,-881.8 54.2,-917.4 434.12,-917.4 434.12,-881.8 54.2,-881.8"/>
<polygon fill="none" stroke="black" points="54.2,-881.8 54.2,-917.4 434.12,-917.4 434.12,-881.8 54.2,-881.8"/>
<text text-anchor="start" x="61.2" y="-895.2" font-family="Arial Bold" font-size="18.00">uasl_reservation.uasl_settlements</text>
<text text-anchor="start" x="302.64" y="-895.2" font-family="Arial" font-size="14.00">    </text>
<text text-anchor="start" x="333.75" y="-895.2" font-family="Arial" font-size="14.00" fill="#666666">[BASE TABLE]</text>
<polygon fill="none" stroke="black" points="54.2,-851 54.2,-881.8 434.12,-881.8 434.12,-851 54.2,-851"/>
<text text-anchor="start" x="61.2" y="-863.2" font-family="Arial" font-size="14.00">id </text>
<text text-anchor="start" x="75.99" y="-863.2" font-family="Arial" font-size="14.00" fill="#666666">[uuid]</text>
<polygon fill="none" stroke="black" points="54.2,-820.2 54.2,-851 434.12,-851 434.12,-820.2 54.2,-820.2"/>
<text text-anchor="start" x="61.2" y="-832.4" font-family="Arial" font-size="14.00">ex_administrator_id </text>
<text text-anchor="start" x="187.26" y="-832.4" font-family="Arial" font-size="14.00" fill="#666666">[varchar(255)]</text>
<polygon fill="none" stroke="black" points="54.2,-789.4 54.2,-820.2 434.12,-820.2 434.12,-789.4 54.2,-789.4"/>
<text text-anchor="start" x="61.2" y="-801.6" font-family="Arial" font-size="14.00">operator_id </text>
<text text-anchor="start" x="135.92" y="-801.6" font-family="Arial" font-size="14.00" fill="#666666">[uuid]</text>
<polygon fill="none" stroke="black" points="54.2,-758.6 54.2,-789.4 434.12,-789.4 434.12,-758.6 54.2,-758.6"/>
<text text-anchor="start" x="61.2" y="-770.8" font-family="Arial" font-size="14.00">target_year_month </text>
<text text-anchor="start" x="182.61" y="-770.8" font-family="Arial" font-size="14.00" fill="#666666">[date]</text>
<polygon fill="none" stroke="black" points="54.2,-727.8 54.2,-758.6 434.12,-758.6 434.12,-727.8 54.2,-727.8"/>
<text text-anchor="start" x="61.2" y="-740" font-family="Arial" font-size="14.00">uasl_reservation_ids </text>
<text text-anchor="start" x="193.5" y="-740" font-family="Arial" font-size="14.00" fill="#666666">[uuid[]]</text>
<polygon fill="none" stroke="black" points="54.2,-697 54.2,-727.8 434.12,-727.8 434.12,-697 54.2,-697"/>
<text text-anchor="start" x="61.2" y="-709.2" font-family="Arial" font-size="14.00">total_amount </text>
<text text-anchor="start" x="146.03" y="-709.2" font-family="Arial" font-size="14.00" fill="#666666">[integer]</text>
<polygon fill="none" stroke="black" points="54.2,-666.2 54.2,-697 434.12,-697 434.12,-666.2 54.2,-666.2"/>
<text text-anchor="start" x="61.2" y="-678.4" font-family="Arial" font-size="14.00">tax_rate </text>
<text text-anchor="start" x="115.68" y="-678.4" font-family="Arial" font-size="14.00" fill="#666666">[numeric(5,4)]</text>
<polygon fill="none" stroke="black" points="54.2,-635.4 54.2,-666.2 434.12,-666.2 434.12,-635.4 54.2,-635.4"/>
<text text-anchor="start" x="61.2" y="-647.6" font-family="Arial" font-size="14.00">payment_confirmed_at </text>
<text text-anchor="start" x="207.5" y="-647.6" font-family="Arial" font-size="14.00" fill="#666666">[timestamp(0) with time zone]</text>
<polygon fill="none" stroke="black" points="54.2,-604.6 54.2,-635.4 434.12,-635.4 434.12,-604.6 54.2,-604.6"/>
<text text-anchor="start" x="61.2" y="-616.8" font-family="Arial" font-size="14.00">submitted_at </text>
<text text-anchor="start" x="145.25" y="-616.8" font-family="Arial" font-size="14.00" fill="#666666">[timestamp(0) with time zone]</text>
<polygon fill="none" stroke="black" points="54.2,-573.8 54.2,-604.6 434.12,-604.6 434.12,-573.8 54.2,-573.8"/>
<text text-anchor="start" x="61.2" y="-586" font-family="Arial" font-size="14.00">billed_at </text>
<text text-anchor="start" x="117.24" y="-586" font-family="Arial" font-size="14.00" fill="#666666">[timestamp(0) with time zone]</text>
<polygon fill="none" stroke="black" points="54.2,-543 54.2,-573.8 434.12,-573.8 434.12,-543 54.2,-543"/>
<text text-anchor="start" x="61.2" y="-555.2" font-family="Arial" font-size="14.00">payment_due_at </text>
<text text-anchor="start" x="169.39" y="-555.2" font-family="Arial" font-size="14.00" fill="#666666">[timestamp(0) with time zone]</text>
<polygon fill="none" stroke="black" points="54.2,-512.2 54.2,-543 434.12,-543 434.12,-512.2 54.2,-512.2"/>
<text text-anchor="start" x="61.2" y="-524.4" font-family="Arial" font-size="14.00">paid_at </text>
<text text-anchor="start" x="111.02" y="-524.4" font-family="Arial" font-size="14.00" fill="#666666">[timestamp(0) with time zone]</text>
<polygon fill="none" stroke="black" points="54.2,-481.4 54.2,-512.2 434.12,-512.2 434.12,-481.4 54.2,-481.4"/>
<text text-anchor="start" x="61.2" y="-493.6" font-family="Arial" font-size="14.00">created_at </text>
<text text-anchor="start" x="131.25" y="-493.6" font-family="Arial" font-size="14.00" fill="#666666">[timestamp(0) with time zone]</text>
<polygon fill="none" stroke="black" points="54.2,-450.6 54.2,-481.4 434.12,-481.4 434.12,-450.6 54.2,-450.6"/>
<text text-anchor="start" x="61.2" y="-462.8" font-family="Arial" font-size="14.00">updated_at </text>
<text text-anchor="start" x="135.16" y="-462.8" font-family="Arial" font-size="14.00" fill="#666666">[timestamp(0) with time zone]</text>
<polygon fill="none" stroke="black" stroke-width="3" points="52.7,-449.1 52.7,-918.9 435.62,-918.9 435.62,-449.1 52.7,-449.1"/>
</g>
<!-- uasl_reservation.uasl_administrators -->
<g id="node2" class="node">
<title>uasl_reservation.uasl_administrators</title>
<polygon fill="#efefef" stroke="none" points="43.2,-289.6 43.2,-325.2 445.12,-325.2 445.12,-289.6 43.2,-289.6"/>
<polygon fill="none" stroke="black" points="43.2,-289.6 43.2,-325.2 445.12,-325.2 445.12,-289.6 43.2,-289.6"/>
<text text-anchor="start" x="50.2" y="-303" font-family="Arial Bold" font-size="18.00">uasl_reservation.uasl_administrators</text>
<text text-anchor="start" x="313.63" y="-303" font-family="Arial" font-size="14.00">    </text>
<text text-anchor="start" x="344.75" y="-303" font-family="Arial" font-size="14.00" fill="#666666">[BASE TABLE]</text>
<polygon fill="none" stroke="black" points="43.2,-258.8 43.2,-289.6 445.12,-289.6 445.12,-258.8 43.2,-258.8"/>
<text text-anchor="start" x="50.2" y="-271" font-family="Arial" font-size="14.00">id </text>
<text text-anchor="start" x="64.99" y="-271" font-family="Arial" font-size="14.00" fill="#666666">[uuid]</text>
<polygon fill="none" stroke="black" points="43.2,-228 43.2,-258.8 445.12,-258.8 445.12,-228 43.2,-228"/>
<text text-anchor="start" x="50.2" y="-240.2" font-family="Arial" font-size="14.00">ex_administrator_id </text>
<text text-anchor="start" x="176.26" y="-240.2" font-family="Arial" font-size="14.00" fill="#666666">[varchar(255)]</text>
<polygon fill="none" stroke="black" points="43.2,-197.2 43.2,-228 445.12,-228 445.12,-197.2 43.2,-197.2"/>
<text text-anchor="start" x="50.2" y="-209.4" font-family="Arial" font-size="14.00">business_number </text>
<text text-anchor="start" x="164.6" y="-209.4" font-family="Arial" font-size="14.00" fill="#666666">[varchar(255)]</text>
<polygon fill="none" stroke="black" points="43.2,-166.4 43.2,-197.2 445.12,-197.2 445.12,-166.4 43.2,-166.4"/>
<text text-anchor="start" x="50.2" y="-178.6" font-family="Arial" font-size="14.00">name </text>
<text text-anchor="start" x="89.11" y="-178.6" font-family="Arial" font-size="14.00" fill="#666666">[varchar(255)]</text>
<polygon fill="none" stroke="black" points="43.2,-135.6 43.2,-166.4 445.12,-166.4 445.12,-135.6 43.2,-135.6"/>
<text text-anchor="start" x="50.2" y="-147.8" font-family="Arial" font-size="14.00">is_internal </text>
<text text-anchor="start" x="117.9" y="-147.8" font-family="Arial" font-size="14.00" fill="#666666">[boolean]</text>
<polygon fill="none" stroke="black" points="43.2,-104.8 43.2,-135.6 445.12,-135.6 445.12,-104.8 43.2,-104.8"/>
<text text-anchor="start" x="50.2" y="-117" font-family="Arial" font-size="14.00">external_services </text>
<text text-anchor="start" x="163.03" y="-117" font-family="Arial" font-size="14.00" fill="#666666">[jsonb]</text>
<polygon fill="none" stroke="black" points="43.2,-74 43.2,-104.8 445.12,-104.8 445.12,-74 43.2,-74"/>
<text text-anchor="start" x="50.2" y="-86.2" font-family="Arial" font-size="14.00">created_at </text>
<text text-anchor="start" x="120.25" y="-86.2" font-family="Arial" font-size="14.00" fill="#666666">[timestamp(0) with time zone]</text>
<polygon fill="none" stroke="black" points="43.2,-43.2 43.2,-74 445.12,-74 445.12,-43.2 43.2,-43.2"/>
<text text-anchor="start" x="50.2" y="-55.4" font-family="Arial" font-size="14.00">updated_at </text>
<text text-anchor="start" x="124.16" y="-55.4" font-family="Arial" font-size="14.00" fill="#666666">[timestamp(0) with time zone]</text>
</g>
<!-- uasl_reservation.uasl_settlements&#45;&gt;uasl_reservation.uasl_administrators -->
<g id="edge1" class="edge">
<title>uasl_reservation.uasl_settlements:ex_administrator_id&#45;&gt;uasl_reservation.uasl_administrators:ex_administrator_id</title>
<path fill="none" stroke="black" d="M444.37,-831.5C501.83,-779.18 508.72,-243.4 446.12,-243.4"/>
<polygon fill="black" stroke="black" points="444.57,-831.41 433.61,-831.35 439.7,-833.57 435.74,-835.33 435.74,-835.33 435.74,-835.33 439.7,-833.57 437.25,-839.58 444.57,-831.41"/>
<text text-anchor="start" x="442.12" y="-845.6" font-family="Arial" font-size="10.00">FOREIGN KEY (ex_administrator_id) REFERENCES uasl_reservation.uasl_administrators(ex_administrator_id)</text>
</g>
</g>
</svg>
